<svg width="32" height="32" viewBox="0 0 32 32" fill="none" xmlns="http://www.w3.org/2000/svg">
<g id="Group 14854">
<g id="Group 14853">
<g id="Group 14850">
<path id="Path 33338" d="M0.301731 12.9123C-0.308935 16.0171 0.0147333 19.2332 1.23181 22.154C2.44888 25.0748 4.50471 27.5692 7.13934 29.3217C9.77397 31.0742 12.8691 32.0061 16.0333 31.9996C19.1976 31.9931 22.2888 31.0485 24.9163 29.2852C27.5437 27.5219 29.5892 25.0192 30.7943 22.0934C31.9994 19.1676 32.3099 15.9502 31.6865 12.848C31.0631 9.74572 29.5338 6.898 27.2921 4.66486C25.0503 2.43171 22.1967 0.913447 19.0921 0.302027C17.0302 -0.104414 14.9085 -0.100605 12.8481 0.313236C10.7877 0.727078 8.82911 1.54284 7.08412 2.71391C5.33912 3.88499 3.84198 5.38842 2.67823 7.1383C1.51448 8.88818 0.706934 10.8502 0.301731 12.9123Z" fill="#FCD517"/>
<path id="Path 33339" d="M29.5673 24.4774C30.6014 22.8287 31.3237 21.0041 31.6984 19.0944C32.5173 14.9307 31.6493 10.6122 29.2853 7.08821C26.9213 3.56424 23.2546 1.1232 19.0915 0.301693C17.9662 0.0840373 16.8211 -0.0137479 15.6752 0.00997564C19.5739 5.20561 23.8176 10.1838 26.5375 16.1409C27.7488 18.8424 28.7614 21.6286 29.5673 24.4774Z" fill="#FFBC00"/>
<path id="Path 33340" opacity="0.54" d="M12.8546 21.3402C15.0487 24.6851 17.5478 28.045 20.7004 30.5508C20.9241 30.7299 21.1564 30.8973 21.3837 31.0699C22.2331 30.7609 23.0551 30.3815 23.8412 29.9354C21.7054 27.4066 19.8881 24.6251 18.4302 21.6534C15.2909 15.258 11.4036 8.17914 10.7171 0.90567C9.02431 1.49931 7.44258 2.3715 6.03715 3.48623C5.75192 9.84094 9.49311 16.2125 12.8546 21.3402Z" fill="#FFF364"/>
<path id="Path 33341" opacity="0.54" d="M5.12443 4.2706C2.48771 6.71443 0.751085 9.97522 0.194669 13.527C-0.361746 17.0788 0.294495 20.7144 2.05754 23.8475C3.82058 26.9806 6.58763 29.4285 9.91236 30.7962C13.2371 32.164 16.9256 32.372 20.383 31.3866C19.6921 30.8564 19.0334 30.2855 18.4106 29.6768C15.6744 26.9318 13.2848 23.862 11.2951 20.5359C8.34838 15.6852 5.17427 10.0582 5.12443 4.2706Z" fill="#FFF7AB"/>
<path id="Path 33342" opacity="0.54" d="M3.08102 6.57574C2.6026 7.23529 2.17355 7.92927 1.79736 8.65203C2.04444 11.4181 3.14227 14.1163 4.52248 16.5525C6.32314 19.7342 8.42589 22.9589 10.9548 25.6124C13.2242 27.9834 15.7853 30.0569 18.5768 31.7831C19.0562 31.7019 19.5319 31.6074 19.998 31.4846C16.4582 28.9705 13.3092 25.9473 10.653 22.5128C7.42434 18.279 3.76983 12.3452 3.08102 6.57574Z" fill="#FFFCD2"/>
<path id="Path 33343" d="M1.07995 10.2389C0.741719 11.1051 0.481159 11.9997 0.301346 12.9121C-0.104525 14.9734 -0.100368 17.0945 0.313579 19.1543C0.727527 21.214 1.54316 23.172 2.71389 24.9165C3.88462 26.661 5.38753 28.1578 7.13678 29.3214C8.88603 30.4851 10.8474 31.2927 12.9088 31.6983C14.2865 31.9727 15.6952 32.0586 17.0961 31.9536C14.1977 30.0778 11.5896 27.7876 9.35497 25.1559C5.99009 21.1427 2.08305 15.7812 1.07995 10.2389Z" fill="#FFEE52"/>
<path id="Path 33344" opacity="0.54" d="M3.92236 5.52753C4.14453 8.3684 5.2408 11.1893 6.41987 13.7177C7.95453 17.1129 9.93796 20.2868 12.317 23.1544C13.3801 24.401 14.5089 25.5902 15.6985 26.7168C14.0772 24.7707 12.6059 22.7045 11.2971 20.5359C8.35029 15.6852 5.17592 10.0582 5.12635 4.2706C4.70246 4.66737 4.30054 5.08697 3.92236 5.52753Z" fill="#FFFCD2"/>
<path id="Path 33345" opacity="0.53" d="M0.301847 12.9124C-0.150462 15.2066 -0.0938496 17.572 0.46769 19.842C0.613808 17.1719 0.415783 14.3445 1.1757 11.7756C1.81746 9.62583 2.941 7.6507 4.4609 6.00044C7.12918 3.07185 10.6534 1.04514 14.6606 0.71345C22.2554 0.094718 28.3672 5.20912 31.4193 11.7289C30.4576 8.25645 28.3518 5.21031 25.4431 3.08375C22.5344 0.9572 18.993 -0.125252 15.3924 0.0116871C11.7919 0.148626 8.34294 1.49694 5.60415 3.83828C2.86536 6.17963 0.997076 9.37691 0.301847 12.9124Z" fill="#D18307"/>
<path id="Path 33346" d="M1.95361 23.6587C3.07489 25.7229 4.63832 27.5139 6.53214 28.9037C8.42595 30.2935 10.6034 31.2478 12.9088 31.6984C14.9702 32.1048 17.0915 32.1013 19.1515 31.6878C21.2115 31.2744 23.1698 30.4592 24.9147 29.2888C26.6596 28.1184 28.1569 26.6158 29.321 24.8667C30.4851 23.1176 31.2932 21.1563 31.6992 19.0948C31.9699 17.6891 32.052 16.2536 31.9434 14.8262C30.9914 21.1163 29.1557 27.2907 21.8805 30.2574C13.9055 33.5094 6.7929 29.395 1.95361 23.6587Z" fill="url(#paint0_linear_856_1683)"/>
</g>
<g id="Group 14851">
<path id="Path 33347" d="M3.75749 13.587C3.28029 16.009 3.53203 18.5181 4.48087 20.797C5.42971 23.0759 7.03303 25.0222 9.08807 26.3899C11.1431 27.7575 13.5576 28.4851 16.0261 28.4805C18.4946 28.4759 20.9064 27.7394 22.9563 26.3641C25.0062 24.9888 26.6023 23.0365 27.5426 20.754C28.483 18.4716 28.7254 15.9616 28.2391 13.5414C27.7529 11.1213 26.56 8.89963 24.8111 7.15748C23.0622 5.41533 20.836 4.23092 18.414 3.75403C15.1664 3.11441 11.7979 3.79104 9.04924 5.63509C6.30062 7.47914 4.39712 10.3395 3.75749 13.587Z" fill="url(#paint1_linear_856_1683)"/>
<path id="Path 33348" d="M4.42973 13.8521C4.11282 15.4187 4.1084 17.0326 4.41673 18.601C4.72507 20.1693 5.34007 21.6614 6.22647 22.9915C7.11286 24.3216 8.25319 25.4636 9.58201 26.3519C10.9108 27.2402 12.402 27.8574 13.9699 28.168C15.5379 28.4785 17.1517 28.4765 18.7188 28.1618C20.2859 27.8472 21.7755 27.2262 23.102 26.3344C24.4285 25.4427 25.5659 24.2978 26.4489 22.9654C27.3318 21.633 27.943 20.1393 28.2473 18.5702C28.5642 17.0035 28.5686 15.3897 28.2603 13.8213C27.9519 12.2529 27.3369 10.7609 26.4505 9.43076C25.5641 8.10066 24.4238 6.95868 23.095 6.07037C21.7661 5.18206 20.275 4.56489 18.7071 4.2543C17.1391 3.9437 15.5253 3.94579 13.9582 4.26043C12.3911 4.57508 10.9015 5.19609 9.57496 6.08783C8.24844 6.97957 7.11106 8.12449 6.22811 9.45688C5.34516 10.7893 4.73401 12.2829 4.42973 13.8521Z" fill="url(#paint2_linear_856_1683)"/>
<path id="Path 33349" opacity="0.42" d="M4.42594 13.7622C3.86762 16.5381 4.31838 19.422 5.69708 21.8952C7.07577 24.3683 9.29189 26.2681 11.9466 27.2528C14.6013 28.2375 17.5203 28.2424 20.1783 27.2666C22.8363 26.2907 25.0587 24.3983 26.4457 21.9298C23.4392 20.4782 20.5298 18.8337 17.7357 17.0064C14.3329 14.7541 9.66128 11.8004 7.44277 7.8967C5.90281 9.5273 4.85674 11.5611 4.42594 13.7622Z" fill="url(#paint3_linear_856_1683)"/>
<path id="Path 33350" opacity="0.58" d="M6.47932 9.05923C5.45675 10.4569 4.7546 12.0626 4.42276 13.7623C3.80993 16.8628 4.4526 20.0798 6.20964 22.7069C7.96668 25.334 10.6945 27.1564 13.7941 27.774C15.6668 28.1461 17.6018 28.057 19.4325 27.5145C17.7462 26.3188 16.182 24.9598 14.7624 23.4572C12.4266 20.948 10.6199 18.0394 8.92829 15.0625C7.84551 13.157 6.91171 11.1752 6.47932 9.05923Z" fill="#FFEE52"/>
</g>
<g id="Group 14852">
<path id="Path 33351" fill-rule="evenodd" clip-rule="evenodd" d="M16.1654 12.9113L16.6752 13.2362L16.6046 15.6587L16.0513 16.3499L15.7195 15.5034L16.1654 12.9113Z" fill="#D67003"/>
<path id="Path 33352" fill-rule="evenodd" clip-rule="evenodd" d="M20.2872 19.7333L20.3642 19.5586L20.7643 19.4935L23.3095 21.698L23.1848 21.9098" fill="#D67003"/>
<path id="Path 33353" fill-rule="evenodd" clip-rule="evenodd" d="M15.7859 7.89936C16.9062 7.7944 18.0362 7.91114 19.1114 8.24292C20.1866 8.57469 21.1859 9.115 22.0522 9.83299C22.9186 10.551 23.635 11.4326 24.1607 12.4275C24.6863 13.4224 25.0108 14.511 25.1156 15.6313C25.2604 17.0877 25.0233 18.5567 24.4277 19.8936L22.3061 18.5948C22.9518 17.8167 23.272 16.8193 23.1997 15.8107C22.9556 13.2023 19.7959 11.3557 16.1415 11.6989C12.4988 12.0413 9.73926 14.4435 9.98381 17.0534C10.2299 19.6732 13.3895 21.5196 17.031 21.1778C18.3978 21.065 19.7166 20.621 20.8734 19.8842L21.0563 20.0441L23.1846 21.9107C22.2842 22.9941 21.1307 23.8389 19.826 24.3703C18.5214 24.9018 17.1059 25.1034 15.7048 24.9575C14.3036 24.8116 12.96 24.3225 11.7929 23.5337C10.6258 22.7448 9.67109 21.6804 9.01329 20.4347C8.3555 19.189 8.01488 17.8004 8.02159 16.3917C8.02829 14.983 8.38211 13.5976 9.05174 12.3582C9.72136 11.1188 10.6861 10.0636 11.8607 9.28588C13.0353 8.50816 14.3835 8.03195 15.7859 7.89936ZM16.2893 13.2609C16.4222 13.2483 16.5423 13.2369 16.6751 13.2351L16.584 16.3984L18.5177 13.5841C19.615 14.0358 20.398 14.9292 20.4993 15.9975C20.6611 17.726 19.0418 19.2777 16.8737 19.4805C14.7175 19.6827 12.8374 18.4605 12.6741 16.7329C12.514 15.0148 14.1332 13.4628 16.2894 13.2605L16.2893 13.2609Z" fill="#D67003"/>
<path id="Path 33354" fill-rule="evenodd" clip-rule="evenodd" d="M15.2758 7.57494C17.538 7.36299 19.7916 8.05835 21.5411 9.50804C23.2905 10.9577 24.3924 13.043 24.6044 15.3051C24.7496 16.762 24.5127 18.2315 23.9169 19.5689L21.7978 18.2692C22.4421 17.4907 22.7615 16.4937 22.6897 15.4857C22.4451 12.8758 19.2859 11.0307 15.6314 11.3739C11.9891 11.7162 9.22965 14.1189 9.47362 16.7271C9.72017 19.3484 12.8799 21.195 16.5213 20.853C17.8877 20.7395 19.206 20.295 20.3621 19.558L22.6732 21.5842C21.7731 22.668 20.6196 23.5132 19.3149 24.045C18.0102 24.5767 16.5946 24.7787 15.1932 24.6329C13.7919 24.4872 12.4481 23.9982 11.2808 23.2093C10.1135 22.4204 9.15866 21.3559 8.50079 20.1101C7.84293 18.8642 7.50234 17.4754 7.50916 16.0665C7.51599 14.6576 7.87001 13.2722 8.53991 12.0327C9.2098 10.7933 10.1749 9.73812 11.3498 8.96058C12.5247 8.18303 13.8732 7.70711 15.2758 7.57494ZM15.7787 12.9366C15.9117 12.9243 16.0317 12.9126 16.1645 12.9108L16.0734 16.0741L18.0071 13.2598C19.1044 13.7115 19.8874 14.6049 19.9879 15.6716C20.1499 17.4 18.5303 18.9518 16.3628 19.1561C14.2066 19.3583 12.3264 18.1359 12.1641 16.4065C12.0026 14.6889 13.6223 13.1384 15.7785 12.9361L15.7787 12.9366Z" fill="#FCD517"/>
<path id="Path 33355" opacity="0.6" fill-rule="evenodd" clip-rule="evenodd" d="M16.4738 15.7816C17.3486 16.4784 18.1901 16.7676 19.4865 17.135C19.15 17.7002 18.6748 18.1702 18.106 18.5006C17.5372 18.8309 16.8935 19.0107 16.2358 19.0229C14.1964 19.0389 12.7947 18.3641 12.3665 16.5873C12.0678 15.338 13.049 14.0669 14.3942 13.4706C14.8758 14.1763 15.1786 14.6844 15.9146 15.3184L15.8892 16.1358C15.8962 16.1712 15.9143 16.2034 15.9409 16.2277C15.9676 16.2519 16.0013 16.267 16.0372 16.2707C16.0708 16.2723 16.1041 16.265 16.134 16.2495C16.1638 16.234 16.189 16.2109 16.207 16.1826L16.4738 15.7816Z" fill="#FFF78D"/>
<path id="Path 33356" opacity="0.6" fill-rule="evenodd" clip-rule="evenodd" d="M20.311 19.7999L22.4053 21.6238C21.1917 23.2187 19.2913 24.6271 15.9349 24.5954C15.9349 24.5954 11.4103 24.3691 9.05252 20.7343C6.21352 16.3587 7.96528 10.9745 12.2275 8.58431C12.3031 9.71045 12.6186 10.8074 13.1528 11.8017C10.7032 12.7 9.08197 14.766 9.29347 16.812C9.53389 19.4354 12.7911 21.3975 16.441 21.0685C17.8126 20.9547 19.1382 20.5202 20.311 19.7999Z" fill="#FFF78D"/>
<path id="Path 33357" opacity="0.6" fill-rule="evenodd" clip-rule="evenodd" d="M24.3131 17.5508C24.2396 18.1428 24.0736 18.7196 23.8212 19.2601L22.0974 18.2015C22.2399 18.0237 22.3636 17.8318 22.4668 17.6288C23.0833 17.6567 23.7011 17.6306 24.3131 17.5508Z" fill="#FFF78D"/>
<path id="Path 33358" fill-rule="evenodd" clip-rule="evenodd" d="M16.0236 7.7811C16.0236 7.7811 10.8709 8.45381 8.76885 12.1854C6.66683 15.9171 8.27657 22.9398 15.3886 24.3717C15.3886 24.3717 19.7605 24.5992 22.1 21.5873L20.4637 19.9218L22.4206 21.5754C22.4206 21.5754 20.4091 24.8924 15.4086 24.5358C15.4086 24.5358 11.9229 24.503 9.19846 21.0685C9.19846 21.0685 6.14657 16.7435 8.64663 12.0521C8.6459 12.0524 11.1882 7.40962 16.0236 7.7811Z" fill="#FFF8B8"/>
<path id="Path 33359" fill-rule="evenodd" clip-rule="evenodd" d="M16.1341 16.0369L18.0937 13.2977C18.0937 13.2977 19.8995 13.9935 19.8847 15.7888C19.8699 17.5841 17.5044 19.115 15.3707 18.8325C15.3707 18.8325 19.3725 18.7035 19.7361 15.8419C19.7484 15.3317 19.6031 14.8302 19.3201 14.4056C19.037 13.9809 18.6299 13.6539 18.1543 13.469C17.5489 14.3764 16.8735 15.235 16.1341 16.0369Z" fill="#FFF8B8"/>
<path id="Path 33360" fill-rule="evenodd" clip-rule="evenodd" d="M12.7275 17.7501C12.366 17.3238 12.1642 16.785 12.1567 16.2262C12.1493 15.6673 12.3367 15.1233 12.6867 14.6876C12.6867 14.6876 11.8113 16.0115 12.7275 17.7501Z" fill="#FFF8B8"/>
<path id="Path 33361" fill-rule="evenodd" clip-rule="evenodd" d="M19.5124 11.7593C19.5124 11.7593 22.768 13.0131 22.678 15.8846C22.7195 16.7412 22.4581 17.5851 21.9397 18.2683C21.9397 18.2683 23.0153 17.2004 22.9092 15.8848C22.8032 14.5692 22.0346 12.3659 19.5124 11.7593Z" fill="#FFF8B8"/>
</g>
<g id="Add_IC">
<path id="Ellipse 46" d="M27 32C29.2091 32 31 30.2091 31 28C31 25.7908 29.2091 24 27 24C24.7909 24 23 25.7908 23 28C23 30.2091 24.7909 32 27 32Z" fill="#2684FF"/>
<g id="Icon feather-plus">
<path id="Path 11" d="M27 26V30" stroke="white" stroke-linecap="round" stroke-linejoin="round"/>
<path id="Path 12" d="M25 28.0002H29" stroke="white" stroke-linecap="round" stroke-linejoin="round"/>
</g>
</g>
</g>
</g>
<defs>
<linearGradient id="paint0_linear_856_1683" x1="1.95361" y1="23.4134" x2="31.9898" y2="23.4134" gradientUnits="userSpaceOnUse">
<stop stop-color="#CC931F"/>
<stop offset="1" stop-color="#CC6900"/>
</linearGradient>
<linearGradient id="paint1_linear_856_1683" x1="4.69526" y1="21.2665" x2="27.3105" y2="10.7328" gradientUnits="userSpaceOnUse">
<stop stop-color="#CC931F"/>
<stop offset="1" stop-color="#CC6900"/>
</linearGradient>
<linearGradient id="paint2_linear_856_1683" x1="5.3065" y1="21.3302" x2="27.395" y2="11.1453" gradientUnits="userSpaceOnUse">
<stop stop-color="#FFE53B"/>
<stop offset="1" stop-color="#FFA200"/>
</linearGradient>
<linearGradient id="paint3_linear_856_1683" x1="17.6557" y1="12.66" x2="12.0917" y2="27.2758" gradientUnits="userSpaceOnUse">
<stop stop-color="#FFF73B"/>
<stop offset="1" stop-color="#FFBA00"/>
</linearGradient>
</defs>
</svg>
