<svg width="125" height="48" viewBox="0 0 125 48" fill="none" xmlns="http://www.w3.org/2000/svg">
<mask id="mask0_856_1518" style="mask-type:luminance" maskUnits="userSpaceOnUse" x="0" y="0" width="120" height="34">
<path d="M119.141 0H0V34H119.141V0Z" fill="white"/>
</mask>
<g mask="url(#mask0_856_1518)">
<path fill-rule="evenodd" clip-rule="evenodd" d="M17.4767 0C19.7731 0 22.0502 0.440668 24.164 1.29263C26.2874 2.14459 28.209 3.39804 29.8328 4.97465C31.4565 6.55127 32.744 8.42166 33.6184 10.4879C34.4927 12.5444 34.9443 14.7575 34.9443 16.9902C34.9635 19.8888 34.1949 22.7483 32.7344 25.2748L28.6798 22.3174C30.1498 20.7995 31.0242 18.9683 31.0242 17C31.0242 11.8001 24.9615 7.5697 17.4671 7.5697C9.9728 7.5697 3.9389 11.8001 3.9389 16.9902C3.9389 22.1803 10.0016 26.4401 17.4671 26.4401C20.2631 26.4695 23.0302 25.8427 25.5187 24.5991L29.8232 29.0253C27.7862 30.9937 25.2881 32.4528 22.5306 33.2558C19.7827 34.0588 16.8618 34.1959 14.0466 33.6475C11.2315 33.0991 8.58923 31.8848 6.36976 30.1123C4.15028 28.3399 2.41121 26.0582 1.31589 23.4827C0.220563 20.9073 -0.211802 18.0968 0.0764418 15.3255C0.355077 12.5444 1.34471 9.88076 2.93966 7.55991C4.53461 5.23906 6.69643 3.33929 9.23298 2.01728C11.7695 0.695276 14.5943 0.00979262 17.4671 0.00979262L17.4767 0ZM17.4767 10.6642C17.7362 10.6642 17.9956 10.6642 18.255 10.6838L17.4767 16.9119L21.9445 11.712C24.0871 12.8088 25.5091 14.7183 25.5091 16.8433C25.5091 20.2805 21.9253 23.0421 17.4767 23.0421C13.0282 23.0421 9.47318 20.2805 9.47318 16.8433C9.47318 13.4061 13.057 10.6642 17.4767 10.6642Z" fill="#EB1A23"/>
<path fill-rule="evenodd" clip-rule="evenodd" d="M46.3875 13.4355C47.4636 13.4355 48.5301 13.7195 49.4525 14.2679C50.3749 14.8163 51.1243 15.5997 51.6239 16.53C51.8737 17.049 52.0947 17.5876 52.2773 18.136L54.7562 24.5795H51.5567L50.9033 22.8462C50.3556 23.4828 49.6639 24.0018 48.8856 24.3543C48.1073 24.7068 47.2522 24.8831 46.3971 24.8733C44.831 24.8733 43.3417 24.2662 42.2368 23.1988C41.1319 22.1216 40.5073 20.6723 40.5073 19.1544C40.5073 17.6366 41.1319 16.1775 42.2368 15.1101C43.3417 14.0329 44.8406 13.4355 46.3971 13.4355H46.3875ZM46.3875 16.0893C46.8102 16.0795 47.2234 16.1481 47.6173 16.295C48.0113 16.4419 48.3668 16.6671 48.6742 16.9511C48.9721 17.2351 49.2123 17.5778 49.3852 17.9499C49.5486 18.322 49.635 18.7333 49.635 19.1446C49.635 19.5559 49.5486 19.9574 49.3852 20.3393C49.2219 20.7114 48.9817 21.0542 48.6742 21.3382C48.3764 21.6222 48.0113 21.8474 47.6173 21.9943C47.2234 22.1412 46.8102 22.2097 46.3875 22.1999C45.5708 22.1803 44.7925 21.8474 44.2161 21.2696C43.6492 20.7016 43.3225 19.9378 43.3225 19.1348C43.3225 18.3318 43.6396 17.5778 44.2161 17C44.7829 16.4321 45.5612 16.0991 46.3875 16.0697V16.0893Z" fill="#221F20"/>
<path fill-rule="evenodd" clip-rule="evenodd" d="M117.43 24.8537H119.14L116.882 19.0271C116.767 18.7236 116.68 18.4102 116.565 18.1066C116.094 17.0099 115.249 16.1089 114.173 15.5507C113.096 14.9926 111.847 14.8065 110.656 15.0317C109.455 15.257 108.369 15.8739 107.581 16.7748C106.794 17.6855 106.352 18.8215 106.323 20.0162C106.294 21.2109 106.697 22.3664 107.447 23.2967C108.196 24.2368 109.253 24.8929 110.445 25.1671C111.636 25.4413 112.885 25.3042 113.98 24.7852C115.076 24.2662 115.96 23.3946 116.479 22.3272L117.43 24.8635V24.8537ZM111.617 16.5888C112.337 16.5888 113.029 16.7944 113.625 17.1861C114.221 17.5778 114.682 18.1262 114.951 18.7725C115.22 19.4188 115.297 20.1239 115.153 20.8094C115.008 21.4949 114.663 22.1216 114.153 22.6112C113.644 23.1009 113 23.4338 112.299 23.5709C111.598 23.708 110.867 23.6297 110.204 23.3653C109.541 23.1009 108.975 22.6406 108.581 22.0628C108.187 21.4851 107.975 20.7996 107.975 20.1043C107.975 19.174 108.36 18.2829 109.042 17.617C109.724 16.9609 110.646 16.5888 111.607 16.5888H111.617Z" fill="#221F20"/>
<path fill-rule="evenodd" clip-rule="evenodd" d="M98.8385 15.061C99.7128 15.061 100.578 15.2667 101.356 15.6682C102.134 16.0697 102.797 16.6474 103.287 17.3525C103.777 18.0576 104.075 18.8704 104.171 19.7223C104.257 20.5743 104.133 21.4262 103.806 22.2194C103.47 23.0126 102.951 23.7079 102.269 24.2563C101.596 24.8047 100.789 25.1768 99.9338 25.3531C99.0787 25.5294 98.1851 25.4902 97.3396 25.2454C96.4941 25.0006 95.7254 24.5697 95.1009 23.9723V31.1601H93.4963V20.2707C93.4963 19.5852 93.6309 18.9095 93.8999 18.2828C94.1689 17.6561 94.5628 17.0783 95.0625 16.5985C95.5621 16.1186 96.1482 15.7367 96.8015 15.4723C97.4453 15.2079 98.1467 15.0806 98.8481 15.0806L98.8385 15.061ZM98.8385 16.716C99.5591 16.716 100.251 16.9216 100.856 17.3035C101.452 17.6855 101.923 18.2338 102.192 18.8802C102.47 19.5265 102.538 20.2315 102.403 20.9072C102.269 21.5829 101.923 22.2194 101.413 22.7091C100.914 23.1987 100.26 23.5415 99.5591 23.6785C98.8577 23.8156 98.1275 23.7471 97.4645 23.4827C96.8015 23.2183 96.2347 22.7678 95.8311 22.1901C95.4276 21.6123 95.2162 20.9366 95.2162 20.2413C95.2162 19.311 95.5909 18.4199 96.2731 17.754C96.9457 17.0979 97.868 16.716 98.8288 16.716H98.8385Z" fill="#221F20"/>
<path d="M66.6605 9.24426H65.0559V24.8733H66.6605V9.24426Z" fill="#221F20"/>
<path fill-rule="evenodd" clip-rule="evenodd" d="M56.7161 19.3502C56.7161 17.8422 57.3311 16.3929 58.4168 15.3157C59.5121 14.2483 61.0014 13.6313 62.5483 13.6216V16.2754C61.722 16.2851 60.9341 16.6181 60.348 17.1861C59.7715 17.7638 59.4449 18.5375 59.4545 19.3404V24.8635H56.7065V19.3404L56.7161 19.3502Z" fill="#221F20"/>
<path fill-rule="evenodd" clip-rule="evenodd" d="M86.3864 14.9044C87.4433 14.9044 88.481 15.208 89.3553 15.776C90.2392 16.344 90.9214 17.1568 91.325 18.1066C91.7285 19.0565 91.8342 20.1043 91.6324 21.113C91.4306 22.1216 90.9214 23.0519 90.172 23.7766C89.4225 24.5012 88.4713 25.0006 87.4337 25.1965C86.396 25.3924 85.3199 25.2944 84.3399 24.9027C83.3598 24.511 82.5239 23.8451 81.9378 22.9932C81.3517 22.1412 81.0347 21.1326 81.0347 20.1043C81.0347 18.7236 81.6015 17.4114 82.6104 16.4419C83.6096 15.4724 84.9644 14.9142 86.3864 14.9142V14.9044ZM86.3864 16.5888C87.107 16.5888 87.7988 16.7944 88.3945 17.1861C88.9902 17.5778 89.4514 18.1262 89.73 18.7627C89.999 19.4091 90.0759 20.1141 89.9318 20.7996C89.7877 21.4851 89.4418 22.1118 88.9325 22.6015C88.4233 23.0911 87.7796 23.424 87.0782 23.5611C86.3768 23.6982 85.6466 23.6199 84.9836 23.3555C84.3206 23.0911 83.7538 22.6308 83.3598 22.0531C82.9659 21.4753 82.7545 20.7898 82.7545 20.0945C82.7545 19.6343 82.8506 19.174 83.0332 18.753C83.2157 18.3221 83.4847 17.9402 83.821 17.617C84.1573 17.2939 84.5608 17.0294 84.9932 16.8532C85.4352 16.6769 85.906 16.5888 86.3768 16.5888H86.3864Z" fill="#221F20"/>
<path fill-rule="evenodd" clip-rule="evenodd" d="M73.9142 14.7673C74.9711 14.7673 76.0088 15.0708 76.8831 15.6388C77.7671 16.2068 78.4492 17.0196 78.8528 17.9695C79.2563 18.9193 79.362 19.9672 79.1602 20.9758C78.9585 21.9844 78.4493 22.9147 77.6998 23.6394C76.9504 24.364 75.9992 24.8635 74.9615 25.0593C73.9238 25.2552 72.8477 25.1572 71.8677 24.7655C70.8877 24.3738 70.0518 23.7079 69.4657 22.8462C68.8796 21.9942 68.5625 20.9856 68.5625 19.9574C68.5625 19.2719 68.697 18.5962 68.966 17.9695C69.2351 17.3427 69.629 16.765 70.1286 16.2851C70.6282 15.8053 71.2143 15.4234 71.8581 15.159C72.5018 14.8946 73.2032 14.7673 73.9046 14.7673H73.9142ZM73.9142 16.432C74.6348 16.432 75.3362 16.6377 75.9319 17.0294C76.5276 17.4211 76.9984 17.9695 77.2771 18.6158C77.5557 19.2621 77.623 19.9672 77.4884 20.6526C77.3443 21.3381 76.9984 21.9649 76.4988 22.4643C75.9896 22.9539 75.3458 23.2967 74.6348 23.4337C73.9334 23.5708 73.2032 23.5023 72.5306 23.2281C71.8677 22.9637 71.3008 22.5034 70.8973 21.9257C70.4937 21.3479 70.2824 20.6624 70.2824 19.9672C70.2824 19.5069 70.3688 19.0467 70.5514 18.6158C70.7339 18.1849 71.003 17.7932 71.3392 17.47C71.6755 17.1371 72.0791 16.8825 72.521 16.7062C72.963 16.5299 73.4338 16.4418 73.9142 16.4418V16.432Z" fill="#221F20"/>
</g>
<path d="M109.14 40.7139C109.411 40.7139 109.643 40.6186 109.827 40.4374C110.02 40.2467 110.117 40.0179 110.117 39.7509C110.117 39.6174 110.088 39.4934 110.039 39.379C109.991 39.2551 109.914 39.1502 109.827 39.0739C109.74 38.9785 109.633 38.9118 109.508 38.8641C109.276 38.7688 108.986 38.7688 108.744 38.8641C108.628 38.9118 108.521 38.9785 108.434 39.0739C108.347 39.1597 108.28 39.2646 108.231 39.379C108.183 39.4934 108.154 39.6174 108.154 39.7509C108.154 40.0179 108.251 40.2467 108.434 40.4374C108.628 40.6186 108.86 40.7139 109.131 40.7139H109.14ZM108.937 39.7509C108.937 39.6937 108.957 39.6555 109.005 39.6079C109.044 39.5697 109.092 39.5411 109.14 39.5411C109.189 39.5411 109.237 39.5602 109.285 39.6079C109.324 39.646 109.353 39.6841 109.353 39.7414C109.353 39.7986 109.334 39.8367 109.285 39.8748C109.208 39.9511 109.082 39.9511 109.005 39.8748C108.966 39.8367 108.947 39.789 108.947 39.7414L108.937 39.7509Z" fill="black"/>
<path d="M119.272 43.9559C119.108 43.7938 118.886 43.7843 118.721 43.8892C118.634 43.9368 118.576 43.9845 118.547 44.0417C118.451 44.242 118.344 44.4136 118.238 44.5662C118.141 44.7092 118.025 44.8236 117.9 44.919C117.774 45.0048 117.629 45.081 117.474 45.1192C117.319 45.1669 117.136 45.1859 116.933 45.1859H116.846C116.875 45.0143 116.894 44.8427 116.894 44.6806C116.894 44.2992 116.855 43.9654 116.788 43.6794C116.72 43.3933 116.614 43.1645 116.488 42.9738C116.362 42.7831 116.217 42.64 116.043 42.5542C115.879 42.4684 115.695 42.4207 115.502 42.4207C115.183 42.4207 114.922 42.5447 114.719 42.8021C114.535 43.0405 114.438 43.3552 114.438 43.7366C114.438 44.1943 114.564 44.6138 114.815 44.9857C115.038 45.3194 115.328 45.5864 115.666 45.7771C115.55 45.9678 115.405 46.1299 115.212 46.2634C114.999 46.4064 114.728 46.4827 114.39 46.4827C114.206 46.4827 114.042 46.4541 113.887 46.3874C113.742 46.3206 113.607 46.2253 113.501 46.1204C113.394 46.006 113.307 45.8629 113.249 45.7104C113.191 45.5387 113.162 45.3671 113.162 45.1764C113.162 44.9666 113.191 44.7664 113.249 44.5948C113.307 44.4231 113.385 44.2706 113.472 44.1466C113.568 44.0226 113.665 43.9178 113.771 43.8319C113.878 43.7461 113.974 43.6794 114.071 43.6317C114.177 43.584 114.264 43.5268 114.342 43.4696C114.409 43.4124 114.487 43.317 114.487 43.1359C114.487 43.0119 114.448 42.907 114.371 42.8307C114.293 42.7449 114.187 42.7068 114.042 42.7068C113.926 42.7068 113.771 42.7545 113.559 42.8689C113.356 42.9642 113.162 43.1168 112.959 43.3266C112.795 43.4887 112.65 43.6985 112.524 43.9368C112.476 43.975 112.427 44.0036 112.408 44.0608C112.215 44.4327 112.021 44.7855 111.818 45.0906C111.625 45.3862 111.422 45.6532 111.229 45.8725C111.045 46.0822 110.861 46.2539 110.677 46.3683C110.407 46.5495 110.165 46.5685 109.894 46.4827C109.798 46.4541 109.701 46.3874 109.614 46.292C109.527 46.1967 109.45 46.0536 109.382 45.8725C109.324 45.6818 109.295 45.4243 109.295 45.1097C109.295 44.8713 109.295 44.6138 109.314 44.3278C109.334 44.0417 109.353 43.7652 109.372 43.5173C109.401 43.2598 109.421 43.031 109.43 42.8498C109.45 42.6591 109.459 42.5447 109.459 42.5066C109.459 42.3826 109.421 42.2777 109.334 42.1919C109.16 41.9821 108.831 42.0012 108.657 42.1728C108.579 42.2491 108.521 42.354 108.512 42.4684C108.444 42.9833 108.405 43.4982 108.376 44.0226C108.367 44.0417 108.338 44.0513 108.328 44.0799C108.241 44.2706 108.135 44.4994 107.99 44.7664C107.854 45.0238 107.7 45.2718 107.516 45.5101C107.352 45.739 107.158 45.9297 106.965 46.0918C106.781 46.2348 106.588 46.3111 106.385 46.3111C105.872 46.3111 105.466 45.6341 105.167 44.3087C105.341 43.8987 105.524 43.4219 105.718 42.907C105.921 42.354 106.124 41.7342 106.307 41.0858C106.491 40.4374 106.655 39.7414 106.781 39.0262C106.907 38.3111 106.974 37.5864 106.974 36.8617C106.974 36.5185 106.955 36.2038 106.907 35.9273C106.858 35.6412 106.791 35.3933 106.694 35.1836C106.597 34.9642 106.472 34.8021 106.307 34.6782C106.143 34.5542 105.94 34.4875 105.708 34.4875C105.447 34.4875 105.205 34.5828 105.002 34.7545C104.809 34.9166 104.635 35.1454 104.49 35.4315C104.354 35.708 104.238 36.0322 104.142 36.3945C104.045 36.7473 103.968 37.1287 103.91 37.5483C103.852 37.9392 103.813 38.3492 103.784 38.7783C103.755 39.1979 103.745 39.6079 103.745 39.9797C103.745 40.857 103.794 41.6579 103.881 42.3635C103.881 42.3826 103.881 42.4017 103.881 42.4207C103.823 42.3921 103.755 42.3731 103.678 42.3731C103.368 42.3731 103.059 42.4493 102.75 42.6019C102.45 42.7545 102.169 42.9642 101.918 43.2312C101.754 43.4124 101.609 43.6222 101.483 43.851C101.464 43.851 101.444 43.8605 101.425 43.8796C101.348 43.9273 101.29 44.0036 101.251 44.0894C101.203 44.1847 101.154 44.3087 101.087 44.4422L101.067 44.4899C101 44.6329 100.913 44.795 100.797 44.9666C100.7 45.1383 100.584 45.3099 100.468 45.472C100.352 45.6341 100.226 45.7771 100.081 45.9106C99.9457 46.0346 99.8007 46.1395 99.6557 46.2253C99.5203 46.292 99.3753 46.3302 99.2303 46.3302C99.0369 46.3302 98.8822 46.2729 98.7759 46.1585C98.6502 46.025 98.5535 45.8629 98.4858 45.6722C98.4182 45.4815 98.3698 45.2813 98.3505 45.081C98.3311 44.8808 98.3311 44.7187 98.3505 44.5948L98.4762 43.0501C98.4762 42.9261 98.4375 42.8117 98.3601 42.7163C98.1958 42.5161 97.8864 42.497 97.6834 42.6782C97.5964 42.764 97.5383 42.8594 97.519 42.9833L97.3837 44.5662C97.3547 44.8617 97.287 45.1192 97.1903 45.329C97.0839 45.5483 96.9679 45.7199 96.8326 45.8629C96.7069 45.9964 96.5715 46.1013 96.4362 46.1681C96.3105 46.2253 96.1945 46.2539 96.0978 46.2539C95.8657 46.2539 95.6917 46.1776 95.566 46.025C95.4404 45.8534 95.3727 45.6055 95.3727 45.2622C95.3727 44.9476 95.4017 44.671 95.45 44.4422C95.508 44.1943 95.566 43.9845 95.6434 43.8033C95.7207 43.6222 95.7884 43.4791 95.8561 43.3743L96.0108 43.1073C96.0108 43.1073 96.0494 43.0215 96.0591 42.9928C96.0881 42.9356 96.0978 42.888 96.0978 42.8307C96.0978 42.7068 96.0494 42.6019 95.9624 42.5161C95.8367 42.3635 95.6337 42.3254 95.4307 42.4017C95.3727 42.4303 95.3147 42.4684 95.2663 42.5256L95.131 42.6973C95.0343 42.8212 94.9376 43.0024 94.8313 43.2408C94.7442 43.4219 94.6669 43.6603 94.5896 43.9178C94.5412 43.9654 94.4929 44.0131 94.4542 44.0894C94.3962 44.242 94.2898 44.4422 94.1448 44.6996C94.0095 44.9476 93.8451 45.1955 93.6614 45.4434C93.4874 45.6818 93.2843 45.8915 93.0716 46.0727C92.7139 46.3683 92.3465 46.3683 92.0371 46.1776C91.8825 46.0822 91.7374 45.9487 91.6021 45.7867C91.4667 45.6055 91.3507 45.4052 91.2347 45.1669C91.1283 44.938 91.0413 44.6996 90.964 44.4422C91.0607 44.3182 91.167 44.1466 91.283 43.9178C91.4087 43.6698 91.5344 43.3647 91.6601 43.0215C91.7954 42.6877 91.9211 42.3063 92.0371 41.9058C92.1628 41.4958 92.2789 41.0858 92.3659 40.6663C92.4722 40.2372 92.5496 39.7986 92.6076 39.379C92.6656 38.9595 92.6946 38.559 92.6946 38.1776H97.3643C97.49 38.1776 97.606 38.1394 97.7027 38.0632C97.7994 37.9774 97.8477 37.8629 97.8477 37.7294C97.8477 37.5959 97.7994 37.4815 97.7027 37.4148C97.6157 37.3385 97.4997 37.2908 97.3643 37.2908H92.6462C92.6172 37.1001 92.5882 36.9285 92.5399 36.7759C92.4916 36.5852 92.4239 36.4041 92.3369 36.261C92.2498 36.1085 92.1338 35.994 91.9985 35.9082C91.7278 35.7175 91.312 35.7271 91.0123 35.9082C90.8673 35.9845 90.7319 36.0989 90.6063 36.2515C90.4902 36.3945 90.3936 36.5661 90.2969 36.7569C90.2195 36.919 90.1615 37.1001 90.1035 37.2908H89.6588C89.6974 37.0906 89.7265 36.8808 89.7265 36.6615C89.7265 35.9845 89.4944 35.3647 89.0303 34.8403C88.837 34.621 88.5759 34.4017 88.2666 34.1824C87.9475 33.963 87.5414 33.7628 87.0484 33.5912C86.5649 33.4195 85.9752 33.2765 85.2887 33.1716C84.612 33.0572 83.7999 33 82.891 33C82.1563 33 81.4021 33.0477 80.648 33.1526C79.8842 33.2479 79.1494 33.3909 78.4437 33.5816C77.7379 33.7723 77.0611 34.0203 76.4327 34.3063C75.8043 34.5924 75.2532 34.9356 74.7794 35.3266C74.3057 35.7271 73.9286 36.1752 73.6579 36.671C73.3872 37.1669 73.2422 37.7199 73.2422 38.3206C73.2422 38.9213 73.3872 39.4267 73.6869 39.8749C73.977 40.3135 74.4217 40.6949 75.0018 41.0095C75.5722 41.3147 76.2973 41.5721 77.1578 41.7723C78.0183 41.9631 79.0334 42.1061 80.1743 42.2014L82.485 42.3921C82.775 42.4207 83.0747 42.4398 83.3648 42.4779C83.6548 42.5066 83.9352 42.5447 84.1962 42.5924C84.467 42.6305 84.728 42.6877 84.96 42.7449C85.1824 42.8021 85.3854 42.8689 85.5691 42.9452C85.7528 43.0215 85.9075 43.1168 86.0429 43.2217C86.1686 43.317 86.2652 43.441 86.3329 43.5936C86.4103 43.7271 86.4393 43.8987 86.4393 44.0894C86.4393 44.4231 86.3329 44.7473 86.1299 45.0334C85.9269 45.329 85.6175 45.5864 85.2114 45.8057C84.8053 46.025 84.2833 46.2062 83.6742 46.3302C83.0651 46.4541 82.3496 46.5209 81.5472 46.5209C80.7447 46.5209 80.0196 46.4732 79.4105 46.3683C78.8014 46.2634 78.2793 46.149 77.8636 46.025C77.4575 45.9011 77.1481 45.7867 76.9451 45.6818C76.7517 45.5769 76.6647 45.5292 76.6261 45.5101C76.452 45.4052 76.22 45.4243 76.0556 45.5673C75.9493 45.6532 75.9009 45.7676 75.9009 45.9106C75.9009 46.0918 75.9783 46.2253 76.1233 46.3016C76.1426 46.3111 76.1813 46.3397 76.51 46.5018C76.7517 46.6162 77.0901 46.7497 77.5349 46.9023C77.9796 47.0358 78.5404 47.1597 79.1978 47.2741C79.8649 47.3886 80.6383 47.4553 81.5182 47.4553C82.3206 47.4553 83.0844 47.379 83.7902 47.236C84.496 47.093 85.1244 46.8737 85.6561 46.5971C86.1879 46.3111 86.623 45.9583 86.9323 45.5387C87.2514 45.1097 87.4061 44.6138 87.4061 44.0513C87.4061 43.4887 87.2224 42.9928 86.8453 42.64C86.4876 42.2968 85.9268 42.0298 85.1824 41.8391C84.7377 41.7342 84.2253 41.6484 83.6548 41.5816C83.0941 41.5149 82.456 41.4482 81.7019 41.3909L80.2516 41.267C79.7585 41.2288 79.2558 41.1716 78.7531 41.1144C78.26 41.0477 77.7862 40.9619 77.3318 40.8665C76.8774 40.7616 76.452 40.6377 76.0653 40.4946C75.6882 40.3421 75.3499 40.1704 75.0695 39.9702C74.7988 39.77 74.5764 39.522 74.412 39.2551C74.2573 38.9881 74.18 38.6734 74.18 38.3111C74.18 37.8439 74.296 37.4148 74.5184 37.0334C74.7504 36.6329 75.0695 36.2706 75.4755 35.9464C75.8816 35.6126 76.3747 35.3266 76.9354 35.0787C77.4962 34.8212 78.0956 34.6114 78.7337 34.4493C79.3815 34.2777 80.0583 34.1538 80.7544 34.0679C81.4602 33.9726 82.1659 33.9344 82.8524 33.9344C83.7515 33.9344 84.583 34.0012 85.3178 34.1251C86.0429 34.2491 86.6713 34.4398 87.1741 34.6782C87.6768 34.907 88.0635 35.2026 88.3342 35.5364C88.5953 35.8701 88.7306 36.2515 88.7306 36.671C88.7306 36.7473 88.7306 36.8331 88.7016 36.9094C88.6823 37.0048 88.6726 37.1001 88.6726 37.205C88.6726 37.2336 88.6823 37.2622 88.692 37.2908H86.6036C86.4683 37.2908 86.3619 37.329 86.2749 37.4052C86.1782 37.4815 86.1299 37.5959 86.1299 37.7294C86.1299 37.8629 86.1782 37.9774 86.2749 38.0632C86.3619 38.1394 86.4779 38.1776 86.6036 38.1776H89.8425C89.7941 38.4446 89.7458 38.7116 89.7168 38.9976C89.6781 39.3218 89.6491 39.6365 89.6298 39.9416C89.6104 40.2467 89.6008 40.5328 89.5911 40.8188C89.5911 41.0954 89.5911 41.3242 89.5911 41.534C89.5911 42.354 89.6588 43.1168 89.7845 43.8033C89.9101 44.4899 90.1035 45.1001 90.3452 45.6055C90.5966 46.1204 90.906 46.5209 91.2637 46.8069C91.6311 47.1025 92.0468 47.2455 92.5109 47.2455C92.7719 47.2455 93.033 47.1788 93.265 47.0453C93.497 46.9213 93.7097 46.7592 93.9031 46.5685C94.1061 46.3778 94.2802 46.1681 94.4349 45.9487C94.4349 45.9869 94.4445 46.025 94.4639 46.0632C94.5412 46.3016 94.6572 46.5018 94.8119 46.6734C94.9569 46.8355 95.1406 46.969 95.3437 47.0644C95.5467 47.1597 95.7787 47.2074 96.0398 47.2074C96.3588 47.2074 96.6779 47.093 96.9873 46.8832C97.2386 46.7116 97.461 46.4923 97.664 46.2157C97.7897 46.5113 97.9541 46.7497 98.1668 46.9309C98.4375 47.1502 98.7662 47.2646 99.1723 47.2646C99.4623 47.2646 99.733 47.1979 99.9844 47.0739C100.236 46.9404 100.468 46.7878 100.671 46.5876C100.845 46.4255 100.99 46.2443 101.135 46.0632C101.154 46.1204 101.154 46.1776 101.174 46.2253C101.261 46.4446 101.377 46.6353 101.522 46.7783C101.667 46.9309 101.841 47.0358 102.034 47.093C102.218 47.1597 102.421 47.1883 102.624 47.1883C103.011 47.1883 103.378 47.0358 103.707 46.7306C103.987 46.4732 104.248 46.1013 104.519 45.5864C104.722 46.1204 104.964 46.5304 105.234 46.7878C105.563 47.093 105.95 47.2455 106.404 47.2455C106.646 47.2455 106.887 47.1883 107.1 47.0739C107.313 46.9595 107.516 46.8164 107.709 46.6448C107.893 46.4732 108.067 46.2825 108.222 46.0632C108.27 45.9964 108.309 45.9201 108.357 45.8534C108.367 45.9201 108.357 45.9869 108.376 46.0441C108.454 46.3206 108.57 46.5685 108.724 46.7783C108.879 46.9881 109.082 47.1597 109.305 47.2837C109.537 47.4076 109.807 47.4744 110.107 47.4744C110.349 47.4744 110.581 47.4172 110.813 47.3027C111.035 47.1979 111.248 47.0548 111.451 46.8737C111.654 46.6925 111.838 46.5018 112.012 46.2825C112.108 46.1681 112.186 46.0536 112.263 45.9392C112.273 45.9678 112.282 46.006 112.292 46.0441C112.398 46.3111 112.553 46.5495 112.746 46.7402C112.94 46.9309 113.172 47.0739 113.423 47.1788C113.684 47.2932 113.974 47.3409 114.284 47.3409C114.545 47.3409 114.796 47.3027 115.018 47.236C115.241 47.1692 115.444 47.0644 115.628 46.9404C115.811 46.8164 115.976 46.6734 116.121 46.5113C116.237 46.3683 116.343 46.2157 116.43 46.0536C116.536 46.0727 116.652 46.0727 116.778 46.0727C117.078 46.0727 117.368 46.0441 117.619 45.9678C117.871 45.8915 118.093 45.7867 118.296 45.6532C118.499 45.5197 118.673 45.3576 118.828 45.1859C118.982 45.0143 119.108 44.8236 119.224 44.6329C119.253 44.5852 119.272 44.528 119.301 44.4708C119.33 44.3945 119.35 44.3278 119.35 44.261C119.35 44.118 119.292 44.0036 119.205 43.9273L119.272 43.9559ZM115.937 44.6901C115.937 44.7473 115.937 44.795 115.937 44.8522C115.879 44.8045 115.831 44.7569 115.782 44.7092C115.695 44.5948 115.618 44.4803 115.55 44.3754C115.492 44.2515 115.444 44.1275 115.415 44.0131C115.386 43.8892 115.366 43.7747 115.366 43.6698C115.366 43.4601 115.415 43.4029 115.424 43.3933C115.473 43.3552 115.492 43.3456 115.492 43.3456C115.531 43.3456 115.579 43.3552 115.647 43.441C115.705 43.5173 115.753 43.6222 115.802 43.7557C115.85 43.8892 115.889 44.0417 115.908 44.2038C115.937 44.3754 115.947 44.5375 115.947 44.6996L115.937 44.6901ZM105.921 38.4541C105.853 38.9785 105.756 39.503 105.631 40.0274C105.515 40.5423 105.37 41.0572 105.205 41.5626C105.099 41.8963 104.983 42.23 104.857 42.5542C104.828 42.2682 104.799 41.944 104.77 41.6007C104.731 41.0667 104.702 40.5232 104.702 39.9797C104.702 39.4076 104.731 38.8451 104.789 38.3111C104.847 37.7676 104.935 37.2718 105.031 36.8236C105.128 36.3945 105.244 36.0417 105.37 35.7843C105.447 35.6317 105.573 35.441 105.708 35.441C105.727 35.441 105.776 35.441 105.824 35.5364C105.872 35.6317 105.921 35.7557 105.95 35.9082C105.988 36.0513 106.008 36.2133 106.008 36.385C106.017 36.5566 106.027 36.7187 106.027 36.8713C106.027 37.3957 105.988 37.9201 105.911 38.4541H105.921ZM102.208 44.4994C102.324 44.242 102.459 44.0322 102.624 43.8701C102.798 43.6984 102.982 43.5745 103.185 43.4887C103.388 43.4029 103.581 43.3456 103.755 43.3266C103.852 43.317 103.939 43.2789 104.006 43.2217C104.064 43.5936 104.122 43.9273 104.18 44.2324C103.997 44.671 103.832 45.0334 103.678 45.3099C103.533 45.5864 103.397 45.7962 103.262 45.9487C103.146 46.0918 103.04 46.1871 102.953 46.2253C102.856 46.2634 102.769 46.292 102.682 46.292C102.479 46.292 102.324 46.2253 102.218 46.0822C102.111 45.9297 102.053 45.7104 102.053 45.4339C102.053 45.0715 102.111 44.7664 102.218 44.5089L102.208 44.4994ZM91.5151 36.7187C91.5151 36.7187 91.5634 36.7569 91.6021 36.8617C91.6504 36.9762 91.6891 37.1192 91.7181 37.3099H91.1187C91.196 37.1001 91.283 36.9476 91.3604 36.8617C91.4474 36.7569 91.4957 36.7282 91.5151 36.7187ZM91.428 40.7425C91.3217 41.2193 91.1863 41.6961 91.0317 42.1633C90.9253 42.4875 90.8093 42.8021 90.6933 43.0977C90.6739 42.9642 90.6643 42.8307 90.6449 42.6782C90.6159 42.3826 90.6063 42.0012 90.6063 41.553C90.6063 40.7426 90.6353 40.056 90.6836 39.5125C90.7319 38.9976 90.7996 38.5495 90.877 38.1967H91.7761C91.7761 38.5399 91.7374 38.9213 91.6794 39.3409C91.6214 39.7986 91.5344 40.2658 91.428 40.7425Z" fill="black"/>
</svg>
