<svg width="24" height="24" viewBox="0 0 24 24" fill="none" xmlns="http://www.w3.org/2000/svg">
<path d="M0.226562 9.68234C-0.231431 12.0105 0.0113169 14.4221 0.924113 16.6123C1.83691 18.8024 3.37876 20.6728 5.35471 21.9869C7.33066 23.301 9.65196 23.9998 12.0251 23.995C14.3983 23.9901 16.7167 23.2818 18.6872 21.9596C20.6578 20.6374 22.1919 18.7607 23.0957 16.5668C23.9995 14.3729 24.2324 11.9603 23.7649 9.63408C23.2973 7.30786 22.1504 5.17248 20.4691 3.49796C18.7878 1.82343 16.6476 0.684951 14.3191 0.226476C12.7728 -0.0782951 11.1815 -0.0754389 9.63624 0.234881C8.09098 0.545201 6.62202 1.1569 5.31329 2.03504C4.00456 2.91317 2.88172 4.04052 2.00892 5.35267C1.13611 6.66483 0.530461 8.13607 0.226562 9.68234Z" fill="#FCD517"/>
<path d="M22.1752 18.3554C22.9507 17.1192 23.4925 15.751 23.7735 14.319C24.3876 11.1968 23.7367 7.95856 21.9637 5.3161C20.1907 2.67364 17.4407 0.843222 14.3184 0.227211C13.4745 0.0640008 12.6156 -0.00932378 11.7562 0.00846541C14.6802 3.90443 17.8629 7.6373 19.9029 12.1043C20.8113 14.13 21.5708 16.2192 22.1752 18.3554Z" fill="#FFBC00"/>
<path opacity="0.54" d="M9.64055 16.0026C11.2861 18.5107 13.1604 21.0302 15.5248 22.9092C15.6926 23.0435 15.8668 23.169 16.0373 23.2984C16.6743 23.0667 17.2909 22.7822 17.8804 22.4478C16.2786 20.5515 14.9156 18.4658 13.8222 16.2375C11.4677 11.4418 8.55226 6.13372 8.03742 0.679688C6.76786 1.12483 5.58157 1.77884 4.52751 2.61473C4.31359 7.37983 7.11945 12.1576 9.64055 16.0026Z" fill="#FFF364"/>
<path opacity="0.54" d="M3.84333 3.20703C1.86581 5.03955 0.563353 7.48466 0.146046 10.148C-0.271261 12.8113 0.220914 15.5375 1.54318 17.8868C2.86545 20.2362 4.94071 22.0717 7.43423 23.0974C9.92774 24.123 12.6941 24.2789 15.2871 23.54C14.7689 23.1425 14.2749 22.7144 13.8078 22.2579C11.7557 20.1996 9.96351 17.8977 8.4713 15.4036C6.26126 11.7663 3.8807 7.5469 3.84333 3.20703Z" fill="#FFF7AB"/>
<path opacity="0.54" d="M2.31088 4.93555C1.95206 5.43011 1.63028 5.95049 1.34814 6.49245C1.53345 8.56664 2.35682 10.5898 3.39196 12.4167C4.74243 14.8024 6.31948 17.2205 8.21614 19.2102C9.91818 20.9882 11.839 22.543 13.9326 23.8373C14.2921 23.7764 14.6489 23.7056 14.9985 23.6135C12.3436 21.7283 9.98188 19.4613 7.98976 16.886C5.56833 13.7112 2.82748 9.2618 2.31088 4.93555Z" fill="#FFFCD2"/>
<path d="M0.809953 7.67578C0.556283 8.32533 0.360865 8.99615 0.226007 9.6803C-0.0783929 11.226 -0.0752751 12.8165 0.235182 14.361C0.545639 15.9055 1.15735 17.3738 2.03539 18.6819C2.91343 19.99 4.0406 21.1124 5.35252 21.9849C6.66445 22.8575 8.13543 23.4631 9.68147 23.7672C10.7148 23.9729 11.7713 24.0374 12.8219 23.9587C10.6481 22.5521 8.6921 20.8348 7.01614 18.8614C4.49252 15.8521 1.56227 11.8317 0.809953 7.67578Z" fill="#FFEE52"/>
<path opacity="0.54" d="M2.94189 4.14954C3.10851 6.27978 3.93071 8.39503 4.815 10.291C5.96598 12.8369 7.45353 15.2168 9.23781 17.3671C10.0351 18.3019 10.8817 19.1936 11.7739 20.0383C10.558 18.5791 9.45444 17.0297 8.47284 15.4036C6.2628 11.7663 3.88205 7.54691 3.84487 3.20703C3.52696 3.50455 3.22552 3.81919 2.94189 4.14954Z" fill="#FFFCD2"/>
<path opacity="0.53" d="M0.226382 9.68229C-0.112845 11.4026 -0.0703863 13.1764 0.350763 14.8785C0.460351 12.8763 0.311833 10.7562 0.881766 8.82989C1.36308 7.21786 2.20573 5.73681 3.34563 4.49936C5.34682 2.30334 7.98996 0.783606 10.9953 0.534891C16.6914 0.070933 21.2751 3.90598 23.5642 8.79486C22.8429 6.19103 21.2636 3.90687 19.0821 2.31227C16.9006 0.717668 14.2446 -0.0940122 11.5442 0.0086721C8.8438 0.111356 6.25713 1.12239 4.20306 2.87806C2.14899 4.63372 0.747798 7.03121 0.226382 9.68229Z" fill="#D18307"/>
<path d="M1.46533 17.7461C2.30628 19.294 3.47884 20.6369 4.89918 21.6791C6.31953 22.7212 7.9526 23.4368 9.68166 23.7747C11.2277 24.0795 12.8186 24.0768 14.3636 23.7668C15.9085 23.4568 17.3773 22.8455 18.686 21.9679C19.9946 21.0903 21.1176 19.9635 21.9906 18.6519C22.8637 17.3403 23.4697 15.8696 23.7742 14.3238C23.9773 13.2698 24.0389 12.1934 23.9574 11.123C23.2434 15.8397 21.8667 20.4695 16.4103 22.6942C10.4291 25.1327 5.09476 22.0475 1.46533 17.7461Z" fill="url(#paint0_linear_8761_1798)"/>
<path d="M2.8178 10.1943C2.45991 12.0104 2.64871 13.8918 3.36033 15.6007C4.07196 17.3095 5.27443 18.769 6.81569 19.7945C8.35695 20.8201 10.1678 21.3656 12.0191 21.3622C13.8705 21.3587 15.6793 20.8064 17.2167 19.7752C18.7542 18.7439 19.9512 17.28 20.6564 15.5685C21.3617 13.857 21.5435 11.9749 21.1788 10.1601C20.8142 8.34531 19.9195 6.67941 18.6078 5.37305C17.2962 4.06669 15.6265 3.17856 13.81 2.82097C11.3744 2.34134 8.84801 2.84872 6.78657 4.23148C4.72513 5.61425 3.29752 7.75913 2.8178 10.1943Z" fill="url(#paint1_linear_8761_1798)"/>
<path d="M3.3226 10.3919C3.08492 11.5667 3.08161 12.7768 3.31285 13.9529C3.5441 15.1289 4.00535 16.2478 4.67014 17.2451C5.33492 18.2425 6.19016 19.0988 7.18677 19.7649C8.18337 20.4311 9.30173 20.8938 10.4777 21.1267C11.6536 21.3596 12.864 21.3581 14.0393 21.1221C15.2146 20.8862 16.3318 20.4205 17.3267 19.7519C18.3215 19.0832 19.1746 18.2247 19.8368 17.2256C20.499 16.2265 20.9573 15.1065 21.1855 13.9298C21.4232 12.755 21.4265 11.5449 21.1953 10.3689C20.964 9.1928 20.5028 8.07398 19.838 7.0766C19.1732 6.07921 18.318 5.2229 17.3214 4.55679C16.3248 3.89069 15.2064 3.42791 14.0305 3.19501C12.8545 2.96211 11.6442 2.96367 10.4688 3.19961C9.29352 3.43554 8.17636 3.90121 7.18148 4.56989C6.1866 5.23856 5.33358 6.09708 4.67137 7.09618C4.00916 8.09528 3.5508 9.21529 3.3226 10.3919Z" fill="url(#paint2_linear_8761_1798)"/>
<path opacity="0.42" d="M3.31972 10.3221C2.901 12.4036 3.23906 14.5661 4.27307 16.4206C5.30708 18.2751 6.96914 19.6997 8.96016 20.4381C10.9512 21.1765 13.1404 21.1801 15.1339 20.4484C17.1273 19.7166 18.7941 18.2976 19.8343 16.4466C17.5795 15.3581 15.3974 14.125 13.3019 12.7547C10.7499 11.0659 7.24618 8.851 5.58232 5.92383C4.42737 7.14654 3.64283 8.6716 3.31972 10.3221Z" fill="url(#paint3_linear_8761_1798)"/>
<path opacity="0.58" d="M4.85969 6.79492C4.09277 7.84294 3.56617 9.047 3.31729 10.3215C2.85768 12.6464 3.33967 15.0587 4.65743 17.0287C5.9752 18.9986 8.02102 20.3652 10.3457 20.8283C11.7502 21.1072 13.2015 21.0404 14.5744 20.6337C13.3098 19.7371 12.1366 18.718 11.0719 17.5913C9.32007 15.7098 7.96512 13.5287 6.6964 11.2965C5.88432 9.86767 5.18398 8.3816 4.85969 6.79492Z" fill="#FFEE52"/>
<path fill-rule="evenodd" clip-rule="evenodd" d="M12.124 9.68715L12.5064 9.93073L12.4534 11.7473L12.0384 12.2656L11.7896 11.6308L12.124 9.68715Z" fill="#D67003"/>
<path fill-rule="evenodd" clip-rule="evenodd" d="M15.2151 14.7947L15.2729 14.6636L15.573 14.6149L17.4818 16.2679L17.3883 16.4267" fill="#D67003"/>
<path fill-rule="evenodd" clip-rule="evenodd" d="M11.839 5.9238C12.6792 5.8451 13.5267 5.93264 14.333 6.18142C15.1394 6.4302 15.8889 6.83535 16.5386 7.37374C17.1884 7.91213 17.7257 8.5732 18.1199 9.31922C18.5141 10.0652 18.7575 10.8816 18.8361 11.7217C18.9447 12.8137 18.7669 13.9153 18.3202 14.9177L16.729 13.9438C17.2133 13.3604 17.4534 12.6124 17.3992 11.8561C17.2162 9.9002 14.8464 8.51554 12.1056 8.77287C9.37367 9.02961 7.304 10.831 7.48742 12.788C7.67195 14.7525 10.0417 16.137 12.7727 15.8807C13.7979 15.7961 14.7869 15.4632 15.6545 14.9107L15.7917 15.0305L17.3879 16.4302C16.7126 17.2426 15.8475 17.8761 14.869 18.2746C13.8905 18.6731 12.8289 18.8243 11.7781 18.7149C10.7272 18.6055 9.71956 18.2388 8.84423 17.6472C7.96889 17.0557 7.25288 16.2576 6.75954 15.3235C6.2662 14.3894 6.01074 13.3481 6.01577 12.2918C6.0208 11.2355 6.28616 10.1967 6.78837 9.2673C7.29058 8.33794 8.01416 7.54667 8.89509 6.96349C9.77601 6.38032 10.7871 6.02322 11.839 5.9238ZM12.2164 9.94414C12.3161 9.93473 12.4062 9.92615 12.5058 9.9248L12.4375 12.2968L13.8878 10.1865C14.7107 10.5252 15.298 11.1951 15.374 11.9962C15.4953 13.2923 14.2808 14.4559 12.6547 14.608C11.0376 14.7596 9.62761 13.8431 9.50508 12.5476C9.38502 11.2593 10.5994 10.0955 12.2166 9.9439L12.2164 9.94414Z" fill="#D67003"/>
<path fill-rule="evenodd" clip-rule="evenodd" d="M11.4568 5.6776C13.1533 5.51867 14.8436 6.04009 16.1556 7.12714C17.4677 8.2142 18.2941 9.77784 18.4531 11.4741C18.562 12.5665 18.3843 13.6685 17.9375 14.6713L16.3481 13.6968C16.8313 13.1129 17.0709 12.3654 17.0171 11.6095C16.8336 9.65246 14.4642 8.2689 11.7234 8.52623C8.9917 8.78291 6.92216 10.5846 7.10513 12.5404C7.29004 14.506 9.65983 15.8906 12.3908 15.6342C13.4156 15.5491 14.4043 15.2158 15.2714 14.6631L17.0047 16.1825C16.3296 16.9952 15.4645 17.629 14.486 18.0277C13.5075 18.4264 12.4458 18.5779 11.3948 18.4686C10.3438 18.3593 9.33599 17.9926 8.46051 17.4011C7.58504 16.8095 6.86891 16.0113 6.37552 15.0771C5.88213 14.1429 5.62669 13.1015 5.63181 12.045C5.63692 10.9886 5.90244 9.9497 6.40486 9.0203C6.90727 8.0909 7.63109 7.29967 8.51226 6.71663C9.39343 6.13359 10.4048 5.77671 11.4568 5.6776ZM11.8339 9.69807C11.9336 9.68884 12.0236 9.68007 12.1232 9.67872L12.0549 12.0507L13.5052 9.94045C14.3281 10.2791 14.9154 10.9491 14.9908 11.7489C15.1123 13.0449 13.8976 14.2086 12.2719 14.3618C10.6548 14.5134 9.24472 13.5968 9.12298 12.3C9.00181 11.012 10.2166 9.84935 11.8337 9.6977L11.8339 9.69807Z" fill="#FCD517"/>
<path opacity="0.6" fill-rule="evenodd" clip-rule="evenodd" d="M12.3552 11.8351C13.0113 12.3576 13.6424 12.5744 14.6147 12.8499C14.3623 13.2738 14.0059 13.6262 13.5793 13.8739C13.1527 14.1216 12.6699 14.2564 12.1767 14.2656C10.6471 14.2776 9.59585 13.7715 9.27474 12.4392C9.05073 11.5024 9.78659 10.5493 10.7955 10.1021C11.1567 10.6313 11.3838 11.0123 11.9358 11.4877L11.9167 12.1007C11.9219 12.1272 11.9355 12.1513 11.9555 12.1695C11.9755 12.1877 12.0008 12.1991 12.0277 12.2018C12.0529 12.203 12.0779 12.1975 12.1003 12.1859C12.1227 12.1743 12.1415 12.157 12.155 12.1357L12.3552 11.8351Z" fill="#FFF78D"/>
<path opacity="0.6" fill-rule="evenodd" clip-rule="evenodd" d="M15.2333 14.8483L16.804 16.216C15.8938 17.4119 14.4685 18.468 11.9513 18.4442C11.9513 18.4442 8.55783 18.2746 6.78952 15.5489C4.66029 12.2679 5.97409 8.23053 9.1707 6.43827C9.22741 7.28272 9.46402 8.10528 9.86467 8.85083C8.02751 9.52446 6.81161 11.0737 6.97023 12.6078C7.15054 14.575 9.59339 16.0463 12.3308 15.7996C13.3595 15.7143 14.3537 15.3884 15.2333 14.8483Z" fill="#FFF78D"/>
<path opacity="0.6" fill-rule="evenodd" clip-rule="evenodd" d="M18.2344 13.1604C18.1793 13.6043 18.0548 14.0368 17.8655 14.4421L16.5727 13.6483C16.6795 13.515 16.7723 13.3711 16.8497 13.2188C17.3121 13.2397 17.7754 13.2202 18.2344 13.1604Z" fill="#FFF78D"/>
<path fill-rule="evenodd" clip-rule="evenodd" d="M12.0172 5.83107C12.0172 5.83107 8.1527 6.3355 6.5762 9.13369C4.9997 11.9319 6.207 17.1979 11.541 18.2716C11.541 18.2716 14.8199 18.4421 16.5744 16.1837L15.3472 14.9348L16.8149 16.1748C16.8149 16.1748 15.3063 18.6621 11.556 18.3946C11.556 18.3946 8.94169 18.3701 6.89841 15.7947C6.89841 15.7947 4.60952 12.5515 6.48454 9.03372C6.48399 9.03391 8.39071 5.55252 12.0172 5.83107Z" fill="#FFF8B8"/>
<path fill-rule="evenodd" clip-rule="evenodd" d="M12.1001 12.0207L13.5697 9.96672C13.5697 9.96672 14.9241 10.4884 14.913 11.8347C14.9019 13.1809 13.1278 14.3288 11.5275 14.117C11.5275 14.117 14.5289 14.0202 14.8015 11.8745C14.8107 11.4919 14.7018 11.1158 14.4895 10.7974C14.2772 10.479 13.9719 10.2338 13.6152 10.0951C13.1612 10.7755 12.6546 11.4194 12.1001 12.0207Z" fill="#FFF8B8"/>
<path fill-rule="evenodd" clip-rule="evenodd" d="M9.54559 13.3094C9.27444 12.9898 9.12308 12.5857 9.1175 12.1667C9.11192 11.7476 9.25246 11.3397 9.51499 11.013C9.51499 11.013 8.85844 12.0057 9.54559 13.3094Z" fill="#FFF8B8"/>
<path fill-rule="evenodd" clip-rule="evenodd" d="M14.6343 8.82227C14.6343 8.82227 17.076 9.76248 17.0085 11.9156C17.0396 12.558 16.8435 13.1907 16.4548 13.7031C16.4548 13.7031 17.2614 12.9023 17.1819 11.9158C17.1024 10.9293 16.526 9.27714 14.6343 8.82227Z" fill="#FFF8B8"/>
<defs>
<linearGradient id="paint0_linear_8761_1798" x1="1.46533" y1="17.5622" x2="23.9922" y2="17.5622" gradientUnits="userSpaceOnUse">
<stop stop-color="#CC931F"/>
<stop offset="1" stop-color="#CC6900"/>
</linearGradient>
<linearGradient id="paint1_linear_8761_1798" x1="3.52112" y1="15.9528" x2="20.4812" y2="8.05163" gradientUnits="userSpaceOnUse">
<stop stop-color="#CC931F"/>
<stop offset="1" stop-color="#CC6900"/>
</linearGradient>
<linearGradient id="paint2_linear_8761_1798" x1="3.98017" y1="15.9994" x2="20.5453" y2="8.35991" gradientUnits="userSpaceOnUse">
<stop stop-color="#FFE53B"/>
<stop offset="1" stop-color="#FFA200"/>
</linearGradient>
<linearGradient id="paint3_linear_8761_1798" x1="13.2419" y1="9.49559" x2="9.07032" y2="20.4558" gradientUnits="userSpaceOnUse">
<stop stop-color="#FFF73B"/>
<stop offset="1" stop-color="#FFBA00"/>
</linearGradient>
</defs>
</svg>
