<svg width="10" height="10" viewBox="0 0 10 10" fill="none" xmlns="http://www.w3.org/2000/svg">
<g clip-path="url(#clip0_8794_10441)">
<path d="M3.80661 9C3.50239 9 3.21426 8.88399 3.02964 8.68397L0.530878 5.986C0.453623 5.90268 0.397223 5.80774 0.3649 5.70659C0.332578 5.60545 0.324967 5.50009 0.342503 5.39654C0.36004 5.29299 0.402379 5.19329 0.467101 5.10312C0.531823 5.01295 0.617659 4.93409 0.719701 4.87104C0.821706 4.80774 0.937997 4.7615 1.06191 4.73499C1.18582 4.70848 1.31492 4.70221 1.4418 4.71654C1.56868 4.73088 1.69086 4.76553 1.80132 4.81852C1.91178 4.87151 2.00836 4.9418 2.08552 5.02534L3.72968 6.79922L7.86351 1.37472C8.0006 1.19561 8.21903 1.06826 8.47088 1.02058C8.72274 0.972909 8.98745 1.00881 9.20695 1.12041C9.66362 1.35243 9.80419 1.8439 9.51886 2.21765L4.63463 8.62397C4.55126 8.73382 4.43633 8.82538 4.29984 8.89071C4.16334 8.95604 4.0094 8.99316 3.85137 8.99886C3.83598 9 3.82199 9 3.80661 9Z" fill="#181059"/>
</g>
<defs>
<clipPath id="clip0_8794_10441">
<rect width="9.92" height="8.32" fill="white" transform="translate(0.039978 0.840088)"/>
</clipPath>
</defs>
</svg>
