<svg width="866" height="126" viewBox="0 0 866 126" fill="none" xmlns="http://www.w3.org/2000/svg">
<rect width="866" height="126" rx="12" fill="#215527"/>
<g clip-path="url(#clip0_2154_377)">
<path d="M222.34 89.6377C222.225 89.5186 222.102 88.2739 222.205 88.1159C222.301 87.9676 223.158 87.7391 223.356 87.5544C223.476 87.4425 223.65 87.0438 223.672 86.8785C223.863 85.488 223.537 83.7085 223.679 82.2766C223.674 82.104 223.532 81.9606 223.356 81.9557C222.323 82.0408 221.135 81.8512 220.121 81.9582C219.997 81.9703 219.852 81.9825 219.825 82.1283L219.806 86.8785C219.833 87.0949 219.955 87.4109 220.121 87.5568C220.398 87.7999 221.196 87.9166 221.302 88.2521C221.338 88.3663 221.248 89.2852 221.206 89.4457C221.16 89.6256 221.02 89.7301 220.832 89.7155L214.279 89.6839C214.225 89.6426 214.174 89.5842 214.147 89.5235C214.091 89.3873 213.973 88.3736 214.01 88.2545C214.115 87.902 215.002 87.7975 215.278 87.4693C215.521 87.1848 215.508 86.7716 215.575 86.4215C215.381 83.1007 215.824 79.5077 215.572 76.2186C215.548 75.8904 215.467 75.4066 215.219 75.1684C214.948 74.9034 214.113 74.7867 214.01 74.4415C213.958 74.2713 214.105 73.3281 214.279 73.2454L220.596 73.2138C220.996 73.1798 221.079 74.2956 221.008 74.5023C220.895 74.8402 219.979 74.8523 219.813 75.5306C219.686 76.0581 219.656 78.5159 219.744 79.0701C219.788 79.3497 219.982 79.4324 220.237 79.4542C220.951 79.5174 222.597 79.5345 223.295 79.4542C223.449 79.4372 223.593 79.3862 223.664 79.2379L223.669 75.7008C223.576 74.9228 223.018 75.0152 222.563 74.6433C222.35 74.4707 222.46 73.8775 222.519 73.6125C222.59 73.2916 222.587 73.2454 222.94 73.2138C224.847 73.0437 227.002 73.3475 228.936 73.2138C229.401 73.1142 229.48 73.9918 229.47 74.3054C229.455 74.8353 228.549 74.8548 228.226 75.1951C228.008 75.4236 227.964 75.8077 227.908 76.1019C228.086 79.4907 227.668 83.1202 227.905 86.4798C227.927 86.791 228.006 87.2675 228.228 87.5009C228.557 87.8461 229.458 87.8704 229.472 88.3906C229.477 88.5535 229.394 89.3387 229.35 89.4821C229.311 89.6086 229.198 89.7228 229.056 89.7155C226.982 89.5794 224.695 89.8881 222.648 89.7155C222.56 89.7082 222.403 89.7034 222.342 89.6426L222.34 89.6377Z" fill="#FEFEFE"/>
<path d="M269.383 46.915C270.838 46.9515 272.299 46.9369 273.754 46.9782C275.208 47.0196 276.614 47.1022 278.036 47.1581C278.785 47.1873 279.579 47.1411 280.328 47.214C281.197 47.2991 281.611 48.3007 281.205 49.0154C278.399 51.3541 275.436 53.5201 272.517 55.725L272.329 55.9268L275.358 66.1346C275.788 67.0948 274.549 68.1304 273.678 67.5689L264.633 61.4452L255.529 67.6053C254.927 68.0235 253.869 67.3501 253.811 66.7059C254.215 64.8972 254.783 63.1055 255.307 61.3212C255.831 59.5368 256.43 57.699 256.915 55.883L248.176 49.1613C247.606 48.5949 248 47.3623 248.801 47.2286C249.078 47.1824 249.594 47.1727 249.903 47.1581C251.776 47.0706 253.671 47.0317 255.539 46.9807C256.998 46.9393 258.453 46.9515 259.912 46.9199C261.075 43.4314 262.341 39.9769 263.634 36.5346C263.994 35.8953 265.079 35.8199 265.529 36.3742C266.391 38.3749 267.111 40.4656 267.85 42.5246C268.374 43.9857 268.879 45.454 269.386 46.9199L269.383 46.915Z" fill="#FEFEFE"/>
<path d="M281.063 81.7831L283.636 79.4688C283.791 78.9583 282.843 79.0458 282.73 78.6374C282.706 78.545 282.804 77.7039 282.838 77.5702C282.894 77.3587 283.054 77.2882 283.262 77.2931C284.804 77.3952 286.499 77.1691 288.024 77.2931C288.132 77.3028 288.323 77.3174 288.401 77.3854C288.538 77.4997 288.636 78.5742 288.526 78.7298C288.46 78.8197 287.823 79.0337 287.64 79.1333C287.076 79.4348 286.437 80.0547 285.965 80.502C285.578 80.8691 285.208 81.258 284.836 81.6397L287.801 86.9588C287.98 87.1605 288.193 87.4231 288.406 87.5835C288.643 87.761 289.354 88.0162 289.434 88.2545C289.486 88.4052 289.395 89.3995 289.329 89.5575C289.29 89.6523 289.214 89.6791 289.123 89.7034C287.941 89.645 286.599 89.8249 285.433 89.7204C285 89.6815 284.956 89.504 284.75 89.1734C283.962 87.8996 283.286 86.4434 282.539 85.1306C282.38 84.8486 282.228 84.5545 282.03 84.2968C281.964 84.2968 281.1 85.1233 281.073 85.2109C281.021 85.3835 281.033 86.5965 281.06 86.8323C281.1 87.1751 281.315 87.5033 281.592 87.7026C281.783 87.8388 282.336 88.0284 282.427 88.2156C282.498 88.3614 282.38 89.5429 282.28 89.645C282.216 89.7082 282.062 89.7131 281.974 89.7204C280.167 89.8687 278.159 89.6013 276.33 89.7204C276.222 89.7204 276.041 89.6961 275.982 89.6013C275.904 89.4749 275.808 88.4076 275.86 88.2569C275.95 87.9846 276.66 87.812 276.893 87.5325C277.089 87.2991 277.128 86.9466 277.184 86.6573C277.018 83.2223 277.41 79.5734 277.189 76.1627C277.155 75.6448 277.111 75.3021 276.678 74.9812C276.511 74.8572 275.928 74.6165 275.874 74.4901C275.796 74.3078 275.904 73.384 276.043 73.2843C276.105 73.2406 276.198 73.2309 276.274 73.2211C277.561 73.0728 279.129 73.3354 280.446 73.2211C280.683 73.2041 281.06 73.5736 281.06 73.7754V81.7904L281.063 81.7831Z" fill="#FEFEFE"/>
<path d="M313.425 87.525C313.554 87.9383 314.301 87.0266 314.747 87.3208C315.964 88.1254 314.291 89.4017 313.471 89.6691C311.598 90.2793 309.688 89.4212 309.546 87.3524C309.399 85.218 309.664 82.9182 309.546 80.7668C308.858 79.1283 307.083 80.0594 306.963 81.5763C306.828 83.278 307.063 85.1572 306.973 86.8759C306.997 87.0801 307.134 87.4472 307.279 87.5906C307.467 87.7778 308.175 87.9966 308.246 88.2348C308.317 88.4731 308.295 89.7299 307.879 89.7129L302.005 89.708C301.939 89.7056 301.897 89.6691 301.853 89.6254C301.713 89.4868 301.633 88.4415 301.691 88.2348C301.762 87.9917 302.512 87.7657 302.702 87.5493C302.815 87.4204 302.952 87.0582 302.972 86.8832C302.818 84.7731 303.18 82.3712 302.972 80.2976C302.95 80.0691 302.854 79.7458 302.705 79.5707C302.492 79.3228 301.968 79.2255 301.88 78.9265C301.846 78.8122 301.948 78.1194 301.988 77.9784C302.059 77.7377 302.186 77.7183 302.411 77.6988C303.697 77.5822 305.158 77.7888 306.463 77.7061C306.858 77.7669 306.86 78.2483 307.002 78.2823C307.078 78.2993 308.197 77.7402 308.42 77.6599C309.857 77.1446 311.537 76.9306 312.661 78.2021C313.048 78.6372 313.427 79.6655 313.427 80.2392V87.525H313.425Z" fill="#FEFEFE"/>
<path d="M256.026 89.6378C255.965 89.701 255.808 89.7034 255.72 89.7107C253.916 89.8614 251.903 89.5916 250.076 89.7107C249.969 89.7107 249.788 89.6864 249.729 89.5916C249.65 89.4652 249.555 88.398 249.606 88.2472C249.697 87.9798 250.417 87.7854 250.637 87.5228C250.818 87.3113 250.911 86.8664 250.933 86.5917C250.809 84.625 251.095 82.4712 250.931 80.5288C250.897 80.1155 250.799 79.6901 250.458 79.4251C250.032 79.0921 249.785 79.2987 249.817 78.6059C249.836 78.1756 249.839 77.7429 250.312 77.6991C251.617 77.58 253.1 77.7915 254.425 77.704C254.716 77.7599 254.858 78.285 254.9 78.2874C256.521 77.5557 258.33 76.6611 260.03 77.7356C260.899 78.285 261.22 79.199 261.33 80.1763L261.34 87.4523C261.817 87.9871 262.165 86.8494 262.767 87.3769C263.369 87.9045 263.046 88.4976 262.564 88.9838C261.112 90.4497 257.745 90.034 257.51 87.6978C257.295 85.5488 257.684 83.0765 257.495 80.8934C257.238 79.5637 255.639 79.6585 255.111 80.7695C254.474 82.1041 255.084 85.2085 254.876 86.7595C254.92 87.0172 254.988 87.321 255.162 87.5252C255.397 87.8024 256.102 87.9798 256.195 88.2497C256.249 88.4077 256.134 89.5357 256.031 89.6402L256.026 89.6378Z" fill="#FEFEFE"/>
<path d="M299.801 85.7215C299.483 85.9209 299.089 86.3803 298.726 86.6356C297.504 87.4913 295.927 87.941 294.532 87.1558C294.147 86.9395 293.185 85.8795 293.53 85.4711C293.555 85.442 293.805 85.3374 293.868 85.3107C295.91 84.4963 298.376 84.1146 300.264 82.8578C301.554 81.9996 300.964 80.9397 300.271 79.8871C296.985 74.906 289.522 77.179 289.111 82.921C288.709 88.522 294.593 91.8574 299.302 88.8964C299.879 88.5342 301.251 87.4208 301.273 86.7109C301.292 86.1178 300.352 85.3763 299.801 85.7215ZM293.104 82.4542C292.975 81.1853 293.484 79.3693 294.968 79.1748C295.915 79.0533 296.586 79.6391 296.931 80.4608C297.152 80.9835 297.399 81.8975 296.917 82.3351C296.562 82.656 294.733 83.2589 294.223 83.3318C293.454 83.4412 293.183 83.2249 293.104 82.4542Z" fill="#FEFEFE"/>
<path d="M274.951 85.838C274.202 85.33 274.06 85.7602 273.573 86.1541C272.863 86.7254 272.069 87.3161 271.151 87.4814C269.983 87.6929 268.507 87.4279 267.917 86.2902C267.78 86.0252 267.566 85.6047 267.885 85.4053C269.753 84.7903 271.67 84.2603 273.448 83.407C274.971 82.6777 275.796 82.2401 274.846 80.4631C273.766 78.4405 271.785 77.0718 269.42 77.1375C264.719 77.2663 262.121 82.0286 263.884 86.2124C265.703 90.5274 271.822 91.2179 274.868 87.7877C275.448 87.1338 275.874 86.4652 274.951 85.838ZM267.478 80.9225C267.701 80.0522 268.225 79.3011 269.185 79.1746C270.324 79.0263 271.056 79.9307 271.323 80.9298C271.692 82.3155 271.068 82.4784 269.934 82.8917C269.42 83.0788 268.291 83.4872 267.787 83.3317C267.121 83.125 267.346 81.4403 267.478 80.9225Z" fill="#FEFEFE"/>
<path d="M240.887 85.7189C240.168 85.449 240.104 85.8817 239.656 86.244C238.282 87.3549 235.922 88.3055 234.462 86.7909C234.225 86.543 233.669 85.7019 234.017 85.4271C235.814 84.8218 237.658 84.3235 239.382 83.5237C241.245 82.6607 242.112 82.2328 240.853 80.1567C239.715 78.2727 237.854 77.0766 235.589 77.1374C231.289 77.2517 228.753 81.2774 229.756 85.2813C230.733 89.166 235.018 90.9212 238.654 89.448C239.622 89.0566 241.171 87.9797 241.617 87.0243C241.879 86.4555 241.414 85.9182 240.887 85.7189ZM233.794 80.5432C234.105 79.7362 234.636 79.2402 235.533 79.177C236.869 79.0822 237.736 80.6381 237.599 81.8122C237.533 82.3835 236.926 82.5926 236.456 82.7749C235.939 82.9767 234.487 83.4872 234 83.3462C233.25 83.1274 233.579 81.1048 233.794 80.5432Z" fill="#FEFEFE"/>
<path d="M248.509 89.6374C248.446 89.7006 248.291 89.7031 248.203 89.7128C246.399 89.8635 244.386 89.5937 242.559 89.7128C242.452 89.7128 242.27 89.6885 242.212 89.5937C242.133 89.4648 242.04 88.4073 242.089 88.2518C242.182 87.96 242.885 87.8069 243.12 87.5273C243.314 87.2988 243.394 86.8321 243.416 86.5379C243.573 84.4691 243.363 82.111 243.328 80.0325C243.157 79.3762 242.817 79.4588 242.417 79.1306C242.209 78.9604 242.305 78.3016 242.371 78.0391C242.444 77.7522 242.501 77.7279 242.794 77.7012C244.139 77.5796 245.664 77.8009 247.028 77.7012C247.283 77.7133 247.332 77.9224 247.351 78.1388C247.601 80.8761 247.158 83.9902 247.351 86.7688C247.398 87.0047 247.439 87.2721 247.586 87.469C247.824 87.7899 248.585 87.9771 248.678 88.2518C248.727 88.3976 248.6 89.5524 248.514 89.6399L248.509 89.6374Z" fill="#FEFEFE"/>
<path d="M244.69 72.8783C247.675 72.4723 248.096 76.6804 245.373 76.9964C242.447 77.3343 242.046 73.2381 244.69 72.8783Z" fill="#FEFEFE"/>
<path d="M317.022 74.8061C316.96 74.6797 316.73 74.5216 316.721 74.4609C316.701 74.3612 316.99 74.1764 317.054 74.0476C317.245 73.6684 317.205 73.1992 316.894 72.8929C316.806 72.8053 316.37 72.5744 316.275 72.5744H314.512C314.512 72.5744 314.424 72.6546 314.424 72.6595V76.0118H315.247V74.6724C315.457 74.7429 315.714 74.6991 315.91 74.7429C316.324 74.8328 316.388 75.6739 316.539 76.0118H317.362C317.174 75.6691 317.174 75.1197 317.022 74.8061ZM316.309 73.7121C316.287 73.7729 316.138 73.9722 316.099 73.9722H315.247V73.2138C315.567 73.1894 316.525 73.1457 316.309 73.7121Z" fill="#FEFEFE"/>
<path d="M315.352 71.3078C312.916 71.5825 311.706 74.541 313.251 76.4494C314.698 78.2362 317.561 77.9979 318.626 75.9559C319.838 73.6294 317.943 71.0161 315.352 71.3078ZM315.453 76.9453C312.634 76.6681 312.566 72.3823 315.35 72.0055C319.135 71.4901 319.238 77.3148 315.453 76.9453Z" fill="#FEFEFE"/>
<path d="M281.122 62.8965C281.379 63.1031 281.607 63.2368 281.682 63.5917C281.891 64.5496 281.021 65.3372 280.12 64.851C279.388 64.4572 279.354 63.2271 280.181 62.9524C280.11 62.8454 279.986 62.8114 279.888 62.6898C279.315 61.9727 280.076 60.8812 281.036 61.258C281.66 61.5035 281.82 62.6509 281.119 62.8965H281.122Z" fill="#FEFEFE"/>
<path d="M243.999 61.2629C244.088 62.0992 243.909 61.9776 243.177 61.963V62.7215H243.882V63.4216H243.177V64.2385H243.999V64.9386H242.354V61.2653H243.999V61.2629Z" fill="#FEFEFE"/>
<path d="M287.23 63.0689C287.701 63.2342 287.762 63.7617 287.686 64.192C287.483 65.3686 285.463 65.2228 285.644 63.9441C285.756 63.9635 286.324 63.9173 286.349 63.9441C286.373 63.9708 286.266 64.316 286.564 64.3403C286.944 64.3695 286.959 63.6645 286.814 63.4554C286.702 63.2901 286.356 63.3363 286.347 63.2707C286.369 63.171 286.327 62.6848 286.349 62.6629C286.373 62.6386 286.692 62.7383 286.824 62.5219C286.905 62.3858 286.939 61.9069 286.782 61.8558C286.332 61.7075 286.557 62.2472 286.371 62.308C286.29 62.3347 285.879 62.3323 285.818 62.291C285.578 62.1232 285.957 61.3793 286.258 61.2627C287.417 60.8105 288.078 62.2788 287.233 62.9887V63.0738L287.23 63.0689Z" fill="#FEFEFE"/>
<path d="M247.229 62.08C246.938 61.8466 246.218 61.6667 246.228 62.2258C246.235 62.6294 247.151 62.9527 247.362 63.3781C247.783 64.2363 247.014 65.1017 246.091 64.9874C245.447 64.9096 245.586 64.6641 245.586 64.1196C245.633 64.0685 246.23 64.5328 246.558 64.1244C246.96 63.6236 245.782 63.2371 245.54 62.7947C245.195 62.1602 245.574 61.285 246.318 61.2048C247.063 61.1246 247.347 61.2996 247.229 62.08Z" fill="#FEFEFE"/>
<path d="M250.696 61.2629C250.728 61.9217 250.769 62.0311 250.049 61.963V64.9362H249.227V61.963C248.509 62.0311 248.549 61.9217 248.58 61.2629H250.696Z" fill="#FDFDFD"/>
<path d="M284.88 61.2629C284.642 61.6737 283.641 64.8073 283.472 64.907C283.391 64.9556 282.914 64.9507 282.794 64.9362C282.713 64.9264 282.691 64.9678 282.708 64.8511L283.822 61.9047H282.882V61.2629H284.88Z" fill="#FEFEFE"/>
<path d="M278.301 61.2629V64.9362H277.595V61.9047C277.522 61.8925 277.262 61.9241 277.243 61.9047C277.221 61.8828 277.26 61.3674 277.243 61.2629H278.301Z" fill="#FEFEFE"/>
<path d="M251.501 64.0732C252.287 63.8982 252.324 64.8681 251.768 64.9824C251.156 65.1088 250.997 64.185 251.501 64.0732Z" fill="#FCFCFC"/>
<path d="M280.005 48.3809C280.005 48.3809 280.015 48.5584 279.99 48.6022L270.62 55.3458L274.185 66.2513L274.04 66.4458L264.643 59.6924L255.275 66.4239L255.096 66.3631L258.615 55.3579L258.441 55.1756L249.342 48.6411L249.281 48.3809H260.882L264.582 37.3612L264.777 37.4609L268.399 48.3809H280H280.005Z" fill="#E2000F"/>
<path d="M317.022 74.8061C316.96 74.6797 316.73 74.5216 316.721 74.4609C316.701 74.3612 316.99 74.1764 317.054 74.0476C317.245 73.6684 317.205 73.1992 316.894 72.8929C316.806 72.8053 316.37 72.5744 316.275 72.5744H314.512C314.512 72.5744 314.424 72.6546 314.424 72.6595V76.0118H315.247V74.6724C315.457 74.7429 315.714 74.6991 315.91 74.7429C316.324 74.8328 316.388 75.6739 316.539 76.0118H317.362C317.174 75.6691 317.174 75.1197 317.022 74.8061ZM316.309 73.7121C316.287 73.7729 316.138 73.9722 316.099 73.9722H315.247V73.2138C315.567 73.1894 316.525 73.1457 316.309 73.7121Z" fill="black"/>
<path d="M280.575 63.3121C281.018 63.1833 281.075 64.2675 280.673 64.3429C280.272 64.4182 280.233 63.4118 280.575 63.3121Z" fill="#030303"/>
<path d="M280.764 61.7928C280.832 61.839 280.952 62.6777 280.571 62.5391C280.286 62.4346 280.421 61.5667 280.764 61.7928Z" fill="#060606"/>
<path d="M317.022 74.8061C316.96 74.6797 316.73 74.5216 316.721 74.4609C316.701 74.3612 316.99 74.1764 317.054 74.0476C317.245 73.6684 317.205 73.1992 316.894 72.8929C316.806 72.8053 316.37 72.5744 316.275 72.5744H314.512C314.512 72.5744 314.424 72.6546 314.424 72.6595V76.0118H315.247V74.6724C315.457 74.7429 315.714 74.6991 315.91 74.7429C316.324 74.8328 316.388 75.6739 316.539 76.0118H317.362C317.174 75.6691 317.174 75.1197 317.022 74.8061ZM316.309 73.7121C316.287 73.7729 316.138 73.9722 316.099 73.9722H315.247V73.2138C315.567 73.1894 316.525 73.1457 316.309 73.7121Z" fill="#FEFEFE"/>
</g>
<path d="M370.204 68.104C370.204 67.208 369.868 66.48 369.196 65.92C368.552 65.36 367.726 64.856 366.718 64.408C365.738 63.932 364.66 63.456 363.484 62.98C362.336 62.476 361.258 61.874 360.25 61.174C359.27 60.446 358.444 59.55 357.772 58.486C357.128 57.422 356.806 56.064 356.806 54.412C356.806 52.984 357.044 51.752 357.52 50.716C357.996 49.652 358.668 48.77 359.536 48.07C360.432 47.37 361.482 46.852 362.686 46.516C363.89 46.18 365.234 46.012 366.718 46.012C368.426 46.012 370.036 46.166 371.548 46.474C373.06 46.754 374.306 47.174 375.286 47.734L373.48 52.564C372.864 52.172 371.94 51.822 370.708 51.514C369.476 51.178 368.146 51.01 366.718 51.01C365.374 51.01 364.338 51.276 363.61 51.808C362.91 52.34 362.56 53.054 362.56 53.95C362.56 54.79 362.882 55.49 363.526 56.05C364.198 56.61 365.024 57.128 366.004 57.604C367.012 58.08 368.09 58.57 369.238 59.074C370.414 59.578 371.492 60.194 372.472 60.922C373.48 61.622 374.306 62.504 374.95 63.568C375.622 64.604 375.958 65.906 375.958 67.474C375.958 69.042 375.692 70.4 375.16 71.548C374.656 72.668 373.928 73.606 372.976 74.362C372.052 75.118 370.918 75.678 369.574 76.042C368.258 76.406 366.802 76.588 365.206 76.588C363.106 76.588 361.258 76.392 359.662 76C358.066 75.608 356.89 75.216 356.134 74.824L357.982 69.91C358.29 70.078 358.682 70.26 359.158 70.456C359.662 70.652 360.222 70.834 360.838 71.002C361.454 71.17 362.098 71.31 362.77 71.422C363.47 71.534 364.184 71.59 364.912 71.59C366.62 71.59 367.922 71.31 368.818 70.75C369.742 70.162 370.204 69.28 370.204 68.104ZM380.169 55H385.629V76H380.169V55ZM379.371 49.078C379.371 48.266 379.665 47.58 380.253 47.02C380.869 46.432 381.709 46.138 382.773 46.138C383.837 46.138 384.691 46.432 385.335 47.02C386.007 47.58 386.343 48.266 386.343 49.078C386.343 49.89 386.007 50.576 385.335 51.136C384.691 51.668 383.837 51.934 382.773 51.934C381.709 51.934 380.869 51.668 380.253 51.136C379.665 50.576 379.371 49.89 379.371 49.078ZM408.711 76C408.711 79.052 407.885 81.292 406.233 82.72C404.581 84.176 402.271 84.904 399.303 84.904C397.287 84.904 395.691 84.764 394.515 84.484C393.367 84.204 392.499 83.91 391.911 83.602L393.045 79.276C393.689 79.528 394.431 79.78 395.271 80.032C396.139 80.284 397.203 80.41 398.463 80.41C400.367 80.41 401.655 79.99 402.327 79.15C403.027 78.338 403.377 77.19 403.377 75.706V74.362H403.209C402.229 75.678 400.493 76.336 398.001 76.336C395.285 76.336 393.255 75.496 391.911 73.816C390.595 72.136 389.937 69.504 389.937 65.92C389.937 62.168 390.833 59.326 392.625 57.394C394.417 55.462 397.021 54.496 400.437 54.496C402.229 54.496 403.825 54.622 405.225 54.874C406.653 55.126 407.815 55.42 408.711 55.756V76ZM399.471 71.968C400.535 71.968 401.347 71.73 401.907 71.254C402.495 70.778 402.943 70.064 403.251 69.112V59.662C402.383 59.298 401.305 59.116 400.017 59.116C398.617 59.116 397.525 59.648 396.741 60.712C395.957 61.748 395.565 63.414 395.565 65.71C395.565 67.754 395.901 69.308 396.573 70.372C397.245 71.436 398.211 71.968 399.471 71.968ZM426.314 76V64.072C426.314 62.364 426.062 61.132 425.558 60.376C425.082 59.62 424.256 59.242 423.08 59.242C422.044 59.242 421.162 59.55 420.434 60.166C419.734 60.754 419.23 61.496 418.922 62.392V76H413.462V55H417.788L418.418 57.772H418.586C419.23 56.876 420.084 56.092 421.148 55.42C422.212 54.748 423.584 54.412 425.264 54.412C426.3 54.412 427.224 54.552 428.036 54.832C428.848 55.112 429.534 55.574 430.094 56.218C430.654 56.862 431.074 57.744 431.354 58.864C431.634 59.956 431.774 61.314 431.774 62.938V76H426.314ZM447.476 55H452.936V76H447.476V55ZM446.678 49.078C446.678 48.266 446.972 47.58 447.56 47.02C448.176 46.432 449.016 46.138 450.08 46.138C451.144 46.138 451.998 46.432 452.642 47.02C453.314 47.58 453.65 48.266 453.65 49.078C453.65 49.89 453.314 50.576 452.642 51.136C451.998 51.668 451.144 51.934 450.08 51.934C449.016 51.934 448.176 51.668 447.56 51.136C446.972 50.576 446.678 49.89 446.678 49.078ZM471.103 76V64.072C471.103 62.364 470.851 61.132 470.347 60.376C469.871 59.62 469.045 59.242 467.869 59.242C466.833 59.242 465.951 59.55 465.223 60.166C464.523 60.754 464.019 61.496 463.711 62.392V76H458.251V55H462.577L463.207 57.772H463.375C464.019 56.876 464.873 56.092 465.937 55.42C467.001 54.748 468.373 54.412 470.053 54.412C471.089 54.412 472.013 54.552 472.825 54.832C473.637 55.112 474.323 55.574 474.883 56.218C475.443 56.862 475.863 57.744 476.143 58.864C476.423 59.956 476.563 61.314 476.563 62.938V76H471.103ZM506.432 55L510.254 65.752L511.01 69.238H511.178L511.766 65.71L514.454 55H519.452L512.984 76.21H508.952L504.71 64.45L504.164 61.804H503.954L503.45 64.492L499.418 76.21H495.26L488.498 55H494.42L497.486 65.542L497.99 69.28H498.2L498.914 65.5L502.4 55H506.432ZM522.002 55H527.462V76H522.002V55ZM521.204 49.078C521.204 48.266 521.498 47.58 522.086 47.02C522.702 46.432 523.542 46.138 524.606 46.138C525.67 46.138 526.524 46.432 527.168 47.02C527.84 47.58 528.176 48.266 528.176 49.078C528.176 49.89 527.84 50.576 527.168 51.136C526.524 51.668 525.67 51.934 524.606 51.934C523.542 51.934 522.702 51.668 522.086 51.136C521.498 50.576 521.204 49.89 521.204 49.078ZM530.593 55H533.491V51.052L538.951 49.498V55H544.075V59.62H538.951V67.684C538.951 69.14 539.091 70.19 539.371 70.834C539.679 71.45 540.239 71.758 541.051 71.758C541.611 71.758 542.087 71.702 542.479 71.59C542.899 71.478 543.361 71.31 543.865 71.086L544.831 75.286C544.075 75.65 543.193 75.958 542.185 76.21C541.177 76.462 540.155 76.588 539.119 76.588C537.187 76.588 535.759 76.098 534.835 75.118C533.939 74.11 533.491 72.472 533.491 70.204V59.62H530.593V55ZM560.271 76V64.072C560.271 62.364 560.033 61.132 559.557 60.376C559.081 59.62 558.213 59.242 556.953 59.242C556.029 59.242 555.175 59.564 554.391 60.208C553.635 60.824 553.131 61.622 552.879 62.602V76H547.419V46.6H552.879V57.352H553.047C553.719 56.456 554.545 55.742 555.525 55.21C556.505 54.678 557.751 54.412 559.263 54.412C560.327 54.412 561.265 54.552 562.077 54.832C562.889 55.112 563.561 55.574 564.093 56.218C564.653 56.862 565.059 57.744 565.311 58.864C565.591 59.956 565.731 61.314 565.731 62.938V76H560.271ZM593.739 68.104C593.739 67.208 593.403 66.48 592.731 65.92C592.087 65.36 591.261 64.856 590.253 64.408C589.273 63.932 588.195 63.456 587.019 62.98C585.871 62.476 584.793 61.874 583.785 61.174C582.805 60.446 581.979 59.55 581.307 58.486C580.663 57.422 580.341 56.064 580.341 54.412C580.341 52.984 580.579 51.752 581.055 50.716C581.531 49.652 582.203 48.77 583.071 48.07C583.967 47.37 585.017 46.852 586.221 46.516C587.425 46.18 588.769 46.012 590.253 46.012C591.961 46.012 593.571 46.166 595.083 46.474C596.595 46.754 597.841 47.174 598.821 47.734L597.015 52.564C596.399 52.172 595.475 51.822 594.243 51.514C593.011 51.178 591.681 51.01 590.253 51.01C588.909 51.01 587.873 51.276 587.145 51.808C586.445 52.34 586.095 53.054 586.095 53.95C586.095 54.79 586.417 55.49 587.061 56.05C587.733 56.61 588.559 57.128 589.539 57.604C590.547 58.08 591.625 58.57 592.773 59.074C593.949 59.578 595.027 60.194 596.007 60.922C597.015 61.622 597.841 62.504 598.485 63.568C599.157 64.604 599.493 65.906 599.493 67.474C599.493 69.042 599.227 70.4 598.695 71.548C598.191 72.668 597.463 73.606 596.511 74.362C595.587 75.118 594.453 75.678 593.109 76.042C591.793 76.406 590.337 76.588 588.741 76.588C586.641 76.588 584.793 76.392 583.197 76C581.601 75.608 580.425 75.216 579.669 74.824L581.517 69.91C581.825 70.078 582.217 70.26 582.693 70.456C583.197 70.652 583.757 70.834 584.373 71.002C584.989 71.17 585.633 71.31 586.305 71.422C587.005 71.534 587.719 71.59 588.447 71.59C590.155 71.59 591.457 71.31 592.353 70.75C593.277 70.162 593.739 69.28 593.739 68.104ZM616.011 68.104C616.011 67.208 615.675 66.48 615.003 65.92C614.359 65.36 613.533 64.856 612.525 64.408C611.545 63.932 610.467 63.456 609.291 62.98C608.143 62.476 607.065 61.874 606.057 61.174C605.077 60.446 604.251 59.55 603.579 58.486C602.935 57.422 602.613 56.064 602.613 54.412C602.613 52.984 602.851 51.752 603.327 50.716C603.803 49.652 604.475 48.77 605.343 48.07C606.239 47.37 607.289 46.852 608.493 46.516C609.697 46.18 611.041 46.012 612.525 46.012C614.233 46.012 615.843 46.166 617.355 46.474C618.867 46.754 620.113 47.174 621.093 47.734L619.287 52.564C618.671 52.172 617.747 51.822 616.515 51.514C615.283 51.178 613.953 51.01 612.525 51.01C611.181 51.01 610.145 51.276 609.417 51.808C608.717 52.34 608.367 53.054 608.367 53.95C608.367 54.79 608.689 55.49 609.333 56.05C610.005 56.61 610.831 57.128 611.811 57.604C612.819 58.08 613.897 58.57 615.045 59.074C616.221 59.578 617.299 60.194 618.279 60.922C619.287 61.622 620.113 62.504 620.757 63.568C621.429 64.604 621.765 65.906 621.765 67.474C621.765 69.042 621.499 70.4 620.967 71.548C620.463 72.668 619.735 73.606 618.783 74.362C617.859 75.118 616.725 75.678 615.381 76.042C614.065 76.406 612.609 76.588 611.013 76.588C608.913 76.588 607.065 76.392 605.469 76C603.873 75.608 602.697 75.216 601.941 74.824L603.789 69.91C604.097 70.078 604.489 70.26 604.965 70.456C605.469 70.652 606.029 70.834 606.645 71.002C607.261 71.17 607.905 71.31 608.577 71.422C609.277 71.534 609.991 71.59 610.719 71.59C612.427 71.59 613.729 71.31 614.625 70.75C615.549 70.162 616.011 69.28 616.011 68.104ZM624.674 61.3C624.674 56.4 625.752 52.634 627.908 50.002C630.064 47.342 633.144 46.012 637.148 46.012C639.248 46.012 641.082 46.376 642.65 47.104C644.218 47.832 645.52 48.868 646.556 50.212C647.592 51.556 648.362 53.166 648.866 55.042C649.37 56.918 649.622 59.004 649.622 61.3C649.622 66.2 648.53 69.98 646.346 72.64C644.19 75.272 641.124 76.588 637.148 76.588C635.02 76.588 633.172 76.224 631.604 75.496C630.036 74.768 628.734 73.732 627.698 72.388C626.69 71.044 625.934 69.434 625.43 67.558C624.926 65.682 624.674 63.596 624.674 61.3ZM630.722 61.3C630.722 62.784 630.848 64.156 631.1 65.416C631.352 66.648 631.73 67.712 632.234 68.608C632.766 69.504 633.438 70.204 634.25 70.708C635.062 71.212 636.028 71.464 637.148 71.464C639.192 71.464 640.774 70.666 641.894 69.07C643.014 67.474 643.574 64.884 643.574 61.3C643.574 59.872 643.448 58.542 643.196 57.31C642.972 56.078 642.608 55 642.104 54.076C641.6 53.152 640.942 52.438 640.13 51.934C639.318 51.402 638.324 51.136 637.148 51.136C635.104 51.136 633.522 51.962 632.402 53.614C631.282 55.238 630.722 57.8 630.722 61.3Z" fill="white"/>
<defs>
<clipPath id="clip0_2154_377">
<rect width="105" height="54" fill="white" transform="translate(214 36)"/>
</clipPath>
</defs>
</svg>
