<svg width="251" height="42" viewBox="0 0 251 42" fill="none" xmlns="http://www.w3.org/2000/svg">
<rect x="0.5" y="0.5" width="250" height="41" rx="11.5" fill="white" stroke="#E0E4E8"/>
<path d="M70.3828 24.125C70.3828 23.8594 70.3411 23.625 70.2578 23.4219C70.1797 23.2135 70.0391 23.026 69.8359 22.8594C69.638 22.6927 69.362 22.5339 69.0078 22.3828C68.6589 22.2318 68.2161 22.0781 67.6797 21.9219C67.1172 21.7552 66.6094 21.5703 66.1562 21.3672C65.7031 21.1589 65.3151 20.9219 64.9922 20.6562C64.6693 20.3906 64.4219 20.0859 64.25 19.7422C64.0781 19.3984 63.9922 19.0052 63.9922 18.5625C63.9922 18.1198 64.0833 17.7109 64.2656 17.3359C64.4479 16.9609 64.7083 16.6354 65.0469 16.3594C65.3906 16.0781 65.7995 15.8594 66.2734 15.7031C66.7474 15.5469 67.276 15.4688 67.8594 15.4688C68.7135 15.4688 69.4375 15.6328 70.0312 15.9609C70.6302 16.2839 71.0859 16.7083 71.3984 17.2344C71.7109 17.7552 71.8672 18.3125 71.8672 18.9062H70.3672C70.3672 18.4792 70.276 18.1016 70.0938 17.7734C69.9115 17.4401 69.6354 17.1797 69.2656 16.9922C68.8958 16.7995 68.4271 16.7031 67.8594 16.7031C67.3229 16.7031 66.8802 16.7839 66.5312 16.9453C66.1823 17.1068 65.9219 17.3255 65.75 17.6016C65.5833 17.8776 65.5 18.1927 65.5 18.5469C65.5 18.7865 65.5495 19.0052 65.6484 19.2031C65.7526 19.3958 65.9115 19.5755 66.125 19.7422C66.3438 19.9089 66.6198 20.0625 66.9531 20.2031C67.2917 20.3438 67.6953 20.4792 68.1641 20.6094C68.8099 20.7917 69.3672 20.9948 69.8359 21.2188C70.3047 21.4427 70.6901 21.6953 70.9922 21.9766C71.2995 22.2526 71.526 22.5677 71.6719 22.9219C71.8229 23.2708 71.8984 23.6667 71.8984 24.1094C71.8984 24.5729 71.8047 24.9922 71.6172 25.3672C71.4297 25.7422 71.1615 26.0625 70.8125 26.3281C70.4635 26.5938 70.0443 26.7995 69.5547 26.9453C69.0703 27.0859 68.5286 27.1562 67.9297 27.1562C67.4036 27.1562 66.8854 27.0833 66.375 26.9375C65.8698 26.7917 65.4089 26.5729 64.9922 26.2812C64.5807 25.9896 64.25 25.6302 64 25.2031C63.7552 24.7708 63.6328 24.2708 63.6328 23.7031H65.1328C65.1328 24.0938 65.2083 24.4297 65.3594 24.7109C65.5104 24.987 65.7161 25.2161 65.9766 25.3984C66.2422 25.5807 66.5417 25.7161 66.875 25.8047C67.2135 25.888 67.5651 25.9297 67.9297 25.9297C68.4557 25.9297 68.901 25.8568 69.2656 25.7109C69.6302 25.5651 69.9062 25.3568 70.0938 25.0859C70.2865 24.8151 70.3828 24.4948 70.3828 24.125ZM75.1719 18.5469V27H73.7188V18.5469H75.1719ZM73.6094 16.3047C73.6094 16.0703 73.6797 15.8724 73.8203 15.7109C73.9661 15.5495 74.1797 15.4688 74.4609 15.4688C74.737 15.4688 74.9479 15.5495 75.0938 15.7109C75.2448 15.8724 75.3203 16.0703 75.3203 16.3047C75.3203 16.5286 75.2448 16.7214 75.0938 16.8828C74.9479 17.0391 74.737 17.1172 74.4609 17.1172C74.1797 17.1172 73.9661 17.0391 73.8203 16.8828C73.6797 16.7214 73.6094 16.5286 73.6094 16.3047ZM82.9688 18.5469H84.2812V26.8203C84.2812 27.5651 84.1302 28.2005 83.8281 28.7266C83.526 29.2526 83.1042 29.651 82.5625 29.9219C82.026 30.1979 81.4062 30.3359 80.7031 30.3359C80.4115 30.3359 80.0677 30.2891 79.6719 30.1953C79.2812 30.1068 78.8958 29.9531 78.5156 29.7344C78.1406 29.5208 77.8255 29.2318 77.5703 28.8672L78.3281 28.0078C78.6823 28.4349 79.0521 28.7318 79.4375 28.8984C79.8281 29.0651 80.2135 29.1484 80.5938 29.1484C81.0521 29.1484 81.4479 29.0625 81.7812 28.8906C82.1146 28.7188 82.3724 28.4635 82.5547 28.125C82.7422 27.7917 82.8359 27.3802 82.8359 26.8906V20.4062L82.9688 18.5469ZM77.1484 22.8672V22.7031C77.1484 22.0573 77.224 21.4714 77.375 20.9453C77.5312 20.4141 77.7526 19.9583 78.0391 19.5781C78.3307 19.1979 78.6823 18.9062 79.0938 18.7031C79.5052 18.4948 79.9688 18.3906 80.4844 18.3906C81.0156 18.3906 81.4792 18.4844 81.875 18.6719C82.276 18.8542 82.6146 19.1224 82.8906 19.4766C83.1719 19.8255 83.3932 20.2474 83.5547 20.7422C83.7161 21.237 83.8281 21.7969 83.8906 22.4219V23.1406C83.8333 23.7604 83.7214 24.3177 83.5547 24.8125C83.3932 25.3073 83.1719 25.7292 82.8906 26.0781C82.6146 26.4271 82.276 26.6953 81.875 26.8828C81.474 27.0651 81.0052 27.1562 80.4688 27.1562C79.9635 27.1562 79.5052 27.0495 79.0938 26.8359C78.6875 26.6224 78.3385 26.3229 78.0469 25.9375C77.7552 25.5521 77.5312 25.099 77.375 24.5781C77.224 24.0521 77.1484 23.4818 77.1484 22.8672ZM78.5938 22.7031V22.8672C78.5938 23.2891 78.6354 23.6849 78.7188 24.0547C78.8073 24.4245 78.9401 24.75 79.1172 25.0312C79.2995 25.3125 79.5312 25.5339 79.8125 25.6953C80.0938 25.8516 80.4297 25.9297 80.8203 25.9297C81.2995 25.9297 81.6953 25.8281 82.0078 25.625C82.3203 25.4219 82.5677 25.1536 82.75 24.8203C82.9375 24.487 83.0833 24.125 83.1875 23.7344V21.8516C83.1302 21.5651 83.0417 21.2891 82.9219 21.0234C82.8073 20.7526 82.6562 20.513 82.4688 20.3047C82.2865 20.0911 82.0599 19.9219 81.7891 19.7969C81.5182 19.6719 81.2005 19.6094 80.8359 19.6094C80.4401 19.6094 80.099 19.6927 79.8125 19.8594C79.5312 20.0208 79.2995 20.2448 79.1172 20.5312C78.9401 20.8125 78.8073 21.1406 78.7188 21.5156C78.6354 21.8854 78.5938 22.2812 78.5938 22.7031ZM87.9219 20.3516V27H86.4766V18.5469H87.8438L87.9219 20.3516ZM87.5781 22.4531L86.9766 22.4297C86.9818 21.8516 87.0677 21.3177 87.2344 20.8281C87.401 20.3333 87.6354 19.9036 87.9375 19.5391C88.2396 19.1745 88.599 18.8932 89.0156 18.6953C89.4375 18.4922 89.9036 18.3906 90.4141 18.3906C90.8307 18.3906 91.2057 18.4479 91.5391 18.5625C91.8724 18.6719 92.1562 18.849 92.3906 19.0938C92.6302 19.3385 92.8125 19.6562 92.9375 20.0469C93.0625 20.4323 93.125 20.9036 93.125 21.4609V27H91.6719V21.4453C91.6719 21.0026 91.6068 20.6484 91.4766 20.3828C91.3464 20.112 91.1562 19.9167 90.9062 19.7969C90.6562 19.6719 90.349 19.6094 89.9844 19.6094C89.625 19.6094 89.2969 19.6849 89 19.8359C88.7083 19.987 88.4557 20.1953 88.2422 20.4609C88.0339 20.7266 87.8698 21.0312 87.75 21.375C87.6354 21.7135 87.5781 22.0729 87.5781 22.4531ZM100.859 18.5469V27H99.4062V18.5469H100.859ZM99.2969 16.3047C99.2969 16.0703 99.3672 15.8724 99.5078 15.7109C99.6536 15.5495 99.8672 15.4688 100.148 15.4688C100.424 15.4688 100.635 15.5495 100.781 15.7109C100.932 15.8724 101.008 16.0703 101.008 16.3047C101.008 16.5286 100.932 16.7214 100.781 16.8828C100.635 17.0391 100.424 17.1172 100.148 17.1172C99.8672 17.1172 99.6536 17.0391 99.5078 16.8828C99.3672 16.7214 99.2969 16.5286 99.2969 16.3047ZM104.625 20.3516V27H103.18V18.5469H104.547L104.625 20.3516ZM104.281 22.4531L103.68 22.4297C103.685 21.8516 103.771 21.3177 103.938 20.8281C104.104 20.3333 104.339 19.9036 104.641 19.5391C104.943 19.1745 105.302 18.8932 105.719 18.6953C106.141 18.4922 106.607 18.3906 107.117 18.3906C107.534 18.3906 107.909 18.4479 108.242 18.5625C108.576 18.6719 108.859 18.849 109.094 19.0938C109.333 19.3385 109.516 19.6562 109.641 20.0469C109.766 20.4323 109.828 20.9036 109.828 21.4609V27H108.375V21.4453C108.375 21.0026 108.31 20.6484 108.18 20.3828C108.049 20.112 107.859 19.9167 107.609 19.7969C107.359 19.6719 107.052 19.6094 106.688 19.6094C106.328 19.6094 106 19.6849 105.703 19.8359C105.411 19.987 105.159 20.1953 104.945 20.4609C104.737 20.7266 104.573 21.0312 104.453 21.375C104.339 21.7135 104.281 22.0729 104.281 22.4531ZM118.133 25.5L120.305 18.5469H121.258L121.07 19.9297L118.859 27H117.93L118.133 25.5ZM116.672 18.5469L118.523 25.5781L118.656 27H117.68L115.227 18.5469H116.672ZM123.336 25.5234L125.102 18.5469H126.539L124.086 27H123.117L123.336 25.5234ZM121.469 18.5469L123.594 25.3828L123.836 27H122.914L120.641 19.9141L120.453 18.5469H121.469ZM129.594 18.5469V27H128.141V18.5469H129.594ZM128.031 16.3047C128.031 16.0703 128.102 15.8724 128.242 15.7109C128.388 15.5495 128.602 15.4688 128.883 15.4688C129.159 15.4688 129.37 15.5495 129.516 15.7109C129.667 15.8724 129.742 16.0703 129.742 16.3047C129.742 16.5286 129.667 16.7214 129.516 16.8828C129.37 17.0391 129.159 17.1172 128.883 17.1172C128.602 17.1172 128.388 17.0391 128.242 16.8828C128.102 16.7214 128.031 16.5286 128.031 16.3047ZM135.453 18.5469V19.6562H130.883V18.5469H135.453ZM132.43 16.4922H133.875V24.9062C133.875 25.1927 133.919 25.4089 134.008 25.5547C134.096 25.7005 134.211 25.7969 134.352 25.8438C134.492 25.8906 134.643 25.9141 134.805 25.9141C134.924 25.9141 135.049 25.9036 135.18 25.8828C135.315 25.8568 135.417 25.8359 135.484 25.8203L135.492 27C135.378 27.0365 135.227 27.0703 135.039 27.1016C134.857 27.138 134.635 27.1562 134.375 27.1562C134.021 27.1562 133.695 27.0859 133.398 26.9453C133.102 26.8047 132.865 26.5703 132.688 26.2422C132.516 25.9089 132.43 25.4609 132.43 24.8984V16.4922ZM138.594 15V27H137.148V15H138.594ZM138.25 22.4531L137.648 22.4297C137.654 21.8516 137.74 21.3177 137.906 20.8281C138.073 20.3333 138.307 19.9036 138.609 19.5391C138.911 19.1745 139.271 18.8932 139.688 18.6953C140.109 18.4922 140.576 18.3906 141.086 18.3906C141.503 18.3906 141.878 18.4479 142.211 18.5625C142.544 18.6719 142.828 18.849 143.062 19.0938C143.302 19.3385 143.484 19.6562 143.609 20.0469C143.734 20.4323 143.797 20.9036 143.797 21.4609V27H142.344V21.4453C142.344 21.0026 142.279 20.6484 142.148 20.3828C142.018 20.112 141.828 19.9167 141.578 19.7969C141.328 19.6719 141.021 19.6094 140.656 19.6094C140.297 19.6094 139.969 19.6849 139.672 19.8359C139.38 19.987 139.128 20.1953 138.914 20.4609C138.706 20.7266 138.542 21.0312 138.422 21.375C138.307 21.7135 138.25 22.0729 138.25 22.4531ZM151.656 15.625V27H150.148V15.625H151.656ZM156.422 20.7422V21.9766H151.328V20.7422H156.422ZM157.195 15.625V16.8594H151.328V15.625H157.195ZM163.492 25.5547V21.2031C163.492 20.8698 163.424 20.5807 163.289 20.3359C163.159 20.0859 162.961 19.8932 162.695 19.7578C162.43 19.6224 162.102 19.5547 161.711 19.5547C161.346 19.5547 161.026 19.6172 160.75 19.7422C160.479 19.8672 160.266 20.0312 160.109 20.2344C159.958 20.4375 159.883 20.6562 159.883 20.8906H158.438C158.438 20.5885 158.516 20.2891 158.672 19.9922C158.828 19.6953 159.052 19.4271 159.344 19.1875C159.641 18.9427 159.995 18.75 160.406 18.6094C160.823 18.4635 161.286 18.3906 161.797 18.3906C162.411 18.3906 162.953 18.4948 163.422 18.7031C163.896 18.9115 164.266 19.2266 164.531 19.6484C164.802 20.0651 164.938 20.5885 164.938 21.2188V25.1562C164.938 25.4375 164.961 25.737 165.008 26.0547C165.06 26.3724 165.135 26.6458 165.234 26.875V27H163.727C163.654 26.8333 163.596 26.612 163.555 26.3359C163.513 26.0547 163.492 25.7943 163.492 25.5547ZM163.742 21.875L163.758 22.8906H162.297C161.885 22.8906 161.518 22.9245 161.195 22.9922C160.872 23.0547 160.602 23.151 160.383 23.2812C160.164 23.4115 159.997 23.5755 159.883 23.7734C159.768 23.9661 159.711 24.1927 159.711 24.4531C159.711 24.7188 159.771 24.9609 159.891 25.1797C160.01 25.3984 160.19 25.5729 160.43 25.7031C160.674 25.8281 160.974 25.8906 161.328 25.8906C161.771 25.8906 162.161 25.7969 162.5 25.6094C162.839 25.4219 163.107 25.1927 163.305 24.9219C163.508 24.651 163.617 24.388 163.633 24.1328L164.25 24.8281C164.214 25.0469 164.115 25.2891 163.953 25.5547C163.792 25.8203 163.576 26.0755 163.305 26.3203C163.039 26.5599 162.721 26.7604 162.352 26.9219C161.987 27.0781 161.576 27.1562 161.117 27.1562C160.544 27.1562 160.042 27.0443 159.609 26.8203C159.182 26.5964 158.849 26.2969 158.609 25.9219C158.375 25.5417 158.258 25.1172 158.258 24.6484C158.258 24.1953 158.346 23.7969 158.523 23.4531C158.701 23.1042 158.956 22.8151 159.289 22.5859C159.622 22.3516 160.023 22.1745 160.492 22.0547C160.961 21.9349 161.484 21.875 162.062 21.875H163.742ZM170.594 25.9688C170.938 25.9688 171.255 25.8984 171.547 25.7578C171.839 25.6172 172.078 25.4245 172.266 25.1797C172.453 24.9297 172.56 24.6458 172.586 24.3281H173.961C173.935 24.8281 173.766 25.2943 173.453 25.7266C173.146 26.1536 172.742 26.5 172.242 26.7656C171.742 27.026 171.193 27.1562 170.594 27.1562C169.958 27.1562 169.404 27.0443 168.93 26.8203C168.461 26.5964 168.07 26.2891 167.758 25.8984C167.451 25.5078 167.219 25.0599 167.062 24.5547C166.911 24.0443 166.836 23.5052 166.836 22.9375V22.6094C166.836 22.0417 166.911 21.5052 167.062 21C167.219 20.4896 167.451 20.0391 167.758 19.6484C168.07 19.2578 168.461 18.9505 168.93 18.7266C169.404 18.5026 169.958 18.3906 170.594 18.3906C171.255 18.3906 171.833 18.526 172.328 18.7969C172.823 19.0625 173.211 19.4271 173.492 19.8906C173.779 20.349 173.935 20.8698 173.961 21.4531H172.586C172.56 21.1042 172.461 20.7891 172.289 20.5078C172.122 20.2266 171.893 20.0026 171.602 19.8359C171.315 19.6641 170.979 19.5781 170.594 19.5781C170.151 19.5781 169.779 19.6667 169.477 19.8438C169.18 20.0156 168.943 20.25 168.766 20.5469C168.594 20.8385 168.469 21.1641 168.391 21.5234C168.318 21.8776 168.281 22.2396 168.281 22.6094V22.9375C168.281 23.3073 168.318 23.6719 168.391 24.0312C168.464 24.3906 168.586 24.7161 168.758 25.0078C168.935 25.2995 169.172 25.5339 169.469 25.7109C169.771 25.8828 170.146 25.9688 170.594 25.9688ZM179.094 27.1562C178.505 27.1562 177.971 27.0573 177.492 26.8594C177.018 26.6562 176.609 26.3724 176.266 26.0078C175.927 25.6432 175.667 25.2109 175.484 24.7109C175.302 24.2109 175.211 23.6641 175.211 23.0703V22.7422C175.211 22.0547 175.312 21.4427 175.516 20.9062C175.719 20.3646 175.995 19.9062 176.344 19.5312C176.693 19.1562 177.089 18.8724 177.531 18.6797C177.974 18.487 178.432 18.3906 178.906 18.3906C179.51 18.3906 180.031 18.4948 180.469 18.7031C180.911 18.9115 181.273 19.2031 181.555 19.5781C181.836 19.9479 182.044 20.3854 182.18 20.8906C182.315 21.3906 182.383 21.9375 182.383 22.5312V23.1797H176.07V22H180.938V21.8906C180.917 21.5156 180.839 21.151 180.703 20.7969C180.573 20.4427 180.365 20.151 180.078 19.9219C179.792 19.6927 179.401 19.5781 178.906 19.5781C178.578 19.5781 178.276 19.6484 178 19.7891C177.724 19.9245 177.487 20.1276 177.289 20.3984C177.091 20.6693 176.938 21 176.828 21.3906C176.719 21.7812 176.664 22.2318 176.664 22.7422V23.0703C176.664 23.4714 176.719 23.849 176.828 24.2031C176.943 24.5521 177.107 24.8594 177.32 25.125C177.539 25.3906 177.802 25.599 178.109 25.75C178.422 25.901 178.776 25.9766 179.172 25.9766C179.682 25.9766 180.115 25.8724 180.469 25.6641C180.823 25.4557 181.133 25.1771 181.398 24.8281L182.273 25.5234C182.091 25.7995 181.859 26.0625 181.578 26.3125C181.297 26.5625 180.951 26.7656 180.539 26.9219C180.133 27.0781 179.651 27.1562 179.094 27.1562ZM184.062 15H185.516V25.3594L185.391 27H184.062V15ZM191.227 22.7031V22.8672C191.227 23.4818 191.154 24.0521 191.008 24.5781C190.862 25.099 190.648 25.5521 190.367 25.9375C190.086 26.3229 189.742 26.6224 189.336 26.8359C188.93 27.0495 188.464 27.1562 187.938 27.1562C187.401 27.1562 186.93 27.0651 186.523 26.8828C186.122 26.6953 185.784 26.4271 185.508 26.0781C185.232 25.7292 185.01 25.3073 184.844 24.8125C184.682 24.3177 184.57 23.7604 184.508 23.1406V22.4219C184.57 21.7969 184.682 21.237 184.844 20.7422C185.01 20.2474 185.232 19.8255 185.508 19.4766C185.784 19.1224 186.122 18.8542 186.523 18.6719C186.924 18.4844 187.391 18.3906 187.922 18.3906C188.453 18.3906 188.924 18.4948 189.336 18.7031C189.747 18.9062 190.091 19.1979 190.367 19.5781C190.648 19.9583 190.862 20.4141 191.008 20.9453C191.154 21.4714 191.227 22.0573 191.227 22.7031ZM189.773 22.8672V22.7031C189.773 22.2812 189.734 21.8854 189.656 21.5156C189.578 21.1406 189.453 20.8125 189.281 20.5312C189.109 20.2448 188.883 20.0208 188.602 19.8594C188.32 19.6927 187.974 19.6094 187.562 19.6094C187.198 19.6094 186.88 19.6719 186.609 19.7969C186.344 19.9219 186.117 20.0911 185.93 20.3047C185.742 20.513 185.589 20.7526 185.469 21.0234C185.354 21.2891 185.268 21.5651 185.211 21.8516V23.7344C185.294 24.099 185.43 24.4505 185.617 24.7891C185.81 25.1224 186.065 25.3958 186.383 25.6094C186.706 25.8229 187.104 25.9297 187.578 25.9297C187.969 25.9297 188.302 25.8516 188.578 25.6953C188.859 25.5339 189.086 25.3125 189.258 25.0312C189.435 24.75 189.565 24.4245 189.648 24.0547C189.732 23.6849 189.773 23.2891 189.773 22.8672ZM192.672 22.8672V22.6875C192.672 22.0781 192.76 21.513 192.938 20.9922C193.115 20.4661 193.37 20.0104 193.703 19.625C194.036 19.2344 194.44 18.9323 194.914 18.7188C195.388 18.5 195.919 18.3906 196.508 18.3906C197.102 18.3906 197.635 18.5 198.109 18.7188C198.589 18.9323 198.995 19.2344 199.328 19.625C199.667 20.0104 199.924 20.4661 200.102 20.9922C200.279 21.513 200.367 22.0781 200.367 22.6875V22.8672C200.367 23.4766 200.279 24.0417 200.102 24.5625C199.924 25.0833 199.667 25.5391 199.328 25.9297C198.995 26.3151 198.591 26.6172 198.117 26.8359C197.648 27.0495 197.117 27.1562 196.523 27.1562C195.93 27.1562 195.396 27.0495 194.922 26.8359C194.448 26.6172 194.042 26.3151 193.703 25.9297C193.37 25.5391 193.115 25.0833 192.938 24.5625C192.76 24.0417 192.672 23.4766 192.672 22.8672ZM194.117 22.6875V22.8672C194.117 23.2891 194.167 23.6875 194.266 24.0625C194.365 24.4323 194.513 24.7604 194.711 25.0469C194.914 25.3333 195.167 25.5599 195.469 25.7266C195.771 25.888 196.122 25.9688 196.523 25.9688C196.919 25.9688 197.266 25.888 197.562 25.7266C197.865 25.5599 198.115 25.3333 198.312 25.0469C198.51 24.7604 198.659 24.4323 198.758 24.0625C198.862 23.6875 198.914 23.2891 198.914 22.8672V22.6875C198.914 22.2708 198.862 21.8776 198.758 21.5078C198.659 21.1328 198.508 20.8021 198.305 20.5156C198.107 20.224 197.857 19.9948 197.555 19.8281C197.258 19.6615 196.909 19.5781 196.508 19.5781C196.112 19.5781 195.763 19.6615 195.461 19.8281C195.164 19.9948 194.914 20.224 194.711 20.5156C194.513 20.8021 194.365 21.1328 194.266 21.5078C194.167 21.8776 194.117 22.2708 194.117 22.6875ZM201.797 22.8672V22.6875C201.797 22.0781 201.885 21.513 202.062 20.9922C202.24 20.4661 202.495 20.0104 202.828 19.625C203.161 19.2344 203.565 18.9323 204.039 18.7188C204.513 18.5 205.044 18.3906 205.633 18.3906C206.227 18.3906 206.76 18.5 207.234 18.7188C207.714 18.9323 208.12 19.2344 208.453 19.625C208.792 20.0104 209.049 20.4661 209.227 20.9922C209.404 21.513 209.492 22.0781 209.492 22.6875V22.8672C209.492 23.4766 209.404 24.0417 209.227 24.5625C209.049 25.0833 208.792 25.5391 208.453 25.9297C208.12 26.3151 207.716 26.6172 207.242 26.8359C206.773 27.0495 206.242 27.1562 205.648 27.1562C205.055 27.1562 204.521 27.0495 204.047 26.8359C203.573 26.6172 203.167 26.3151 202.828 25.9297C202.495 25.5391 202.24 25.0833 202.062 24.5625C201.885 24.0417 201.797 23.4766 201.797 22.8672ZM203.242 22.6875V22.8672C203.242 23.2891 203.292 23.6875 203.391 24.0625C203.49 24.4323 203.638 24.7604 203.836 25.0469C204.039 25.3333 204.292 25.5599 204.594 25.7266C204.896 25.888 205.247 25.9688 205.648 25.9688C206.044 25.9688 206.391 25.888 206.688 25.7266C206.99 25.5599 207.24 25.3333 207.438 25.0469C207.635 24.7604 207.784 24.4323 207.883 24.0625C207.987 23.6875 208.039 23.2891 208.039 22.8672V22.6875C208.039 22.2708 207.987 21.8776 207.883 21.5078C207.784 21.1328 207.633 20.8021 207.43 20.5156C207.232 20.224 206.982 19.9948 206.68 19.8281C206.383 19.6615 206.034 19.5781 205.633 19.5781C205.237 19.5781 204.888 19.6615 204.586 19.8281C204.289 19.9948 204.039 20.224 203.836 20.5156C203.638 20.8021 203.49 21.1328 203.391 21.5078C203.292 21.8776 203.242 22.2708 203.242 22.6875ZM212.758 15V27H211.305V15H212.758ZM217.922 18.5469L214.234 22.4922L212.172 24.6328L212.055 23.0938L213.531 21.3281L216.156 18.5469H217.922ZM216.602 27L213.586 22.9688L214.336 21.6797L218.305 27H216.602Z" fill="black"/>
<g clip-path="url(#clip0_4671_6871)">
<path d="M51 21C51 25.9914 47.343 30.1285 42.5625 30.8785V23.8906H44.8926L45.3359 21H42.5625V19.1242C42.5625 18.3332 42.95 17.5625 44.1922 17.5625H45.4531V15.1016C45.4531 15.1016 44.3086 14.9063 43.2145 14.9063C40.9305 14.9063 39.4375 16.2906 39.4375 18.7969V21H36.8984V23.8906H39.4375V30.8785C34.657 30.1285 31 25.9914 31 21C31 15.4773 35.4773 11 41 11C46.5227 11 51 15.4773 51 21Z" fill="#1877F2"/>
<path d="M44.8926 23.8906L45.3359 21H42.5625V19.1242C42.5625 18.3334 42.9499 17.5625 44.1921 17.5625H45.4531V15.1016C45.4531 15.1016 44.3088 14.9062 43.2146 14.9062C40.9304 14.9062 39.4375 16.2906 39.4375 18.7969V21H36.8984V23.8906H39.4375V30.8785C39.9466 30.9584 40.4684 31 41 31C41.5316 31 42.0534 30.9584 42.5625 30.8785V23.8906H44.8926Z" fill="white"/>
</g>
<defs>
<clipPath id="clip0_4671_6871">
<rect width="20" height="20" fill="white" transform="translate(31 11)"/>
</clipPath>
</defs>
</svg>
